<?xml version="1.0" encoding="UTF-8"?>
<svg width="5in" height="5in" version="1.1" viewBox="0 0 127 127" xmlns="http://www.w3.org/2000/svg"><g transform="translate(0 -170)"><path d="m64.129 178.24c-0.10787 0.11688-0.34297 0.34845-0.6067 0.67863l-54.491 54.648 6.8274 14.741 0.20395 0.47593c0.15003 0.82259 0.27032 1.4185 0.36741 1.7866 0.04199 0.1408 0.07246 0.26266 0.11956 0.38699 0.04939 0.2108 0.20165 0.52534 0.48556 0.70813 0.06344 0.0494 0.12425 0.0494 0.18757 0.0742l46.154 39.14c0.03542 0.0938 0.09609 0.18772 0.26374 0.36147 0.09139 0.0938 0.24595 0.23467 0.53266 0.2956 0.19457 0.0494 0.42603 4e-3 0.61846-0.0742l0.02144 0.0247 0.07245-0.0742c0.05597-0.0247 0.10547-0.0494 0.14772-0.0938 0.13364-0.0938 0.22034-0.18774 0.27526-0.26927l45.683-38.95c0.13834-0.0494 0.28255-0.0494 0.56551-0.21079 0.19458-0.0938 0.44618-0.27915 0.61568-0.61921 0.1688-0.3376 0.15951-0.78306 0.0419-1.0902l-0.0799-0.2108v-6e-3l5.7556-16.434-52.081-55.155c-0.45155-0.51787-1.2746-0.59748-1.6799-0.13421zm0.7683 2.6335 34.699 59.202-34.918 15.191-35.436-15.123zm-5.255 4.7934-32.671 54.308c-0.04939 0.0494-0.09608 0.0938-0.14532 0.1408-0.11726 0.11688-0.45905 0.4364-0.94156 0.89331-2.3697 2.1968-3.6861 3.0345-7.834 7.3099-0.02138-0.0494-0.02138-0.0494-0.02138-0.11688l-0.02138-0.14081-6.5313-14.099zm10.584 0.27913 45.328 48.073-4.9828 14.238-8.7133-8.3401zm-33.103 28.195-13.518 9.8503-2.0221 2.7684 1.7556 5.7968-4.3137 5.8918 0.49774 1.6411 4.3137-5.8917 0.54484 1.8029 2.028-2.7684-0.54485-1.8052 11.665-15.943zm55.202 0.72871c-0.50968 0.0742-0.90874 0.32607-1.1903 0.78059-0.5404 0.87453-0.46325 2.089 0.22742 3.6415 0.68203 1.5427 1.9605 3.333 3.8341 5.3736l0.98305-0.89323c-1.2792-1.3106-2.1806-2.499-2.7031-3.5646-0.52262-1.0667-0.61426-1.8709-0.27807-2.4158 0.31816-0.51546 0.91624-0.57721 1.8001-0.18774 0.87708 0.37054 1.813 1.0597 2.8067 2.0726 0.94741 0.96593 1.8463 2.171 2.6971 3.6119 0.84145 1.4325 1.8648 3.5758 3.0672 6.4335 0.77225 1.8381 1.4996 3.3836 2.179 4.6365 0.68205 1.2497 1.4353 2.4215 2.259 3.5142 0.49836 0.66614 1.0522 1.2988 1.661 1.9061l3.7571-6.0871-2.41-2.4574-2.7918 4.5181c-0.3782-0.59038-0.72446-1.2121-1.0511-1.8592-0.33593-0.65626-0.92931-1.9646-1.7734-3.9317-1.0215-2.3661-1.8641-4.1681-2.5225-5.4062-0.65625-1.2426-1.3317-2.3422-2.028-3.2983-0.69635-0.95655-1.4505-1.8545-2.2678-2.6882-1.6069-1.6388-3.116-2.7525-4.521-3.3456-0.43887-0.18774-0.83229-0.30219-1.1873-0.34006-0.19457-0.0247-0.38025-0.0494-0.55053-2e-3zm-26.847 0.11688c-2.8887 0-5.1866 1.0457-6.8925 3.1382-1.9548 2.4031-2.931 6.249-2.931 11.541 0 4.7314 0.88176 8.1327 2.6498 10.2 1.768 2.0537 4.0524 3.079 6.8539 3.079 1.6435 0 3.1165-0.39194 4.4115-1.1746 1.2949-0.78552 2.3089-1.9108 3.0435-3.3813 0.74716-1.4817 1.1221-3.0808 1.1221-4.7992 0-2.6146-0.79319-4.7426-2.3745-6.3862-1.5689-1.6552-3.4728-2.484-5.714-2.484-1.2824 0-2.5097 0.2956-3.6801 0.8933-1.1704 0.5978-2.1602 1.5122-2.9696 2.7445 0.02138-2.7394 0.34394-4.8483 0.95352-6.33 0.61047-1.4817 1.4433-2.6092 2.5017-3.381 0.80933-0.59781 1.7478-0.89794 2.8186-0.89794 1.3321 0 2.4544 0.48088 3.3633 1.4395 0.54764 0.59779 0.97133 1.5568 1.2703 2.8776l3.3426-0.26267c-0.27387-2.1287-1.1019-3.7957-2.484-5.0036-1.3697-1.2074-3.1308-1.8122-5.2849-1.8122zm-31.996 3.7095-8.1153 11.091-1.2703-4.1835zm31.493 8.9888c1.5314 0 2.8018 0.55086 3.8104 1.6458 1.0086 1.0832 1.5099 2.5691 1.5099 4.4619 0 1.967-0.50895 3.5236-1.5307 4.6689-1.021 1.1464-2.2399 1.7208-3.6594 1.7208-0.97133 0-1.899-0.2742-2.7831-0.82258-0.88388-0.55991-1.5743-1.3692-2.0723-2.4277-0.48557-1.0573-0.72847-2.1663-0.72847-3.3247 0-1.7678 0.52608-3.1921 1.584-4.2752 1.0583-1.0949 2.3505-1.6459 3.8696-1.6459zm35.857 14.075 8.9235 8.7221-44.161 37.648 0.27526-31.161zm-72.841 0.0742 35.664 15.218-0.20635 31.211-44.443-37.692c0.34023-0.36065 0.56831-0.61919 1.2079-1.252 0.99524-0.98701 2.2465-2.1968 3.4699-3.3751 1.6444-1.5826 2.8025-2.6871 3.5558-3.4019 0.23516-0.21079 0.48836-0.45452 0.75185-0.70813zm61.221 9.3646c-0.28392-6e-3 -0.59854 0.0494-0.94438 0.14079-1.1066 0.31455-2.4132 1.1137-3.917 2.401-1.4163 1.212-2.5791 2.4983-3.4877 3.8548-0.91717 1.3645-1.5085 2.7097-1.7734 4.0412-0.26374 1.3364-0.1665 2.7466 0.28671 4.2278 0.43681 1.4232 1.0403 2.2765 1.8118 2.5612 0.76453 0.29806 1.7307 0.21079 2.8955-0.27915 1.1561-0.47839 2.3587-1.252 3.6091-2.3211 1.7312-1.4817 3.0626-3.0739 3.9969-4.7786 0.92561-1.6974 1.2102-3.1353 0.84965-4.3108-0.34888-1.1394-1.1837-1.5849-2.4988-1.3387-1.315 0.2462-2.7668 1.055-4.3581 2.416-0.95304 0.81599-1.795 1.7091-2.5225 2.6854-0.73455 0.98709-1.2686 1.9108-1.6018 2.7682-0.04199-0.11687-0.0774-0.21079-0.0961-0.27419-0.18049-0.59038-0.24175-1.2708-0.18049-2.042 0.06344-0.77153 0.21565-1.4747 0.46185-2.1101 0.24801-0.63071 0.6178-1.2824 1.1073-1.953 0.48038-0.66365 1.0832-1.3058 1.809-1.9272 0.848-0.72707 1.5865-1.1769 2.2174-1.3505 0.63139-0.16386 1.1411-0.0247 1.5307 0.45698l2.2294-2.0655c-0.32401-0.5138-0.79903-0.77811-1.4241-0.7921zm-42.785 1.5638c-0.53406 1.2965-1.1819 2.3656-1.9452 3.2063-1.0707 1.2027-2.363 2.1734-3.8785 2.9163-1.523 0.73613-2.9602 1.1535-4.3107 1.259l-0.40256 1.3317 10.827 8.5356 0.49774-1.6435-8.1922-6.4572c1.341-0.16386 2.6941-0.6052 4.0591-1.3176 1.3556-0.71059 2.5177-1.6482 3.4817-2.8097 0.96406-1.1605 1.6203-2.2811 1.9748-3.3572zm42.329 5.0983c0.69635-0.0494 1.1432 0.25774 1.3413 0.90263 0.25254 0.82257 0.07245 1.8217-0.55052 3.0052-0.61986 1.1816-1.4555 2.2225-2.5047 3.1205-1.0142 0.86746-1.9516 1.3692-2.8157 1.5028-0.87263 0.1408-1.4339-0.18772-1.6845-1.0128-0.25015-0.81846-0.0961-1.7608 0.47124-2.8305 0.55843-1.0574 1.3851-2.0538 2.478-2.9902 1.0841-0.92847 2.0681-1.4794 2.9518-1.6576 0.11017-0.0247 0.21573-0.0494 0.31396-0.0494z" color="#000000" color-rendering="auto" dominant-baseline="auto" fill-opacity=".99471" image-rendering="auto" shape-rendering="auto" solid-color="#000000" style="font-feature-settings:normal;font-variant-alternates:normal;font-variant-caps:normal;font-variant-ligatures:normal;font-variant-numeric:normal;font-variant-position:normal;isolation:auto;mix-blend-mode:normal;paint-order:stroke markers fill;shape-padding:0;text-decoration-color:#000000;text-decoration-line:none;text-decoration-style:solid;text-indent:0;text-orientation:mixed;text-transform:none;white-space:normal"/></g></svg>
