<?xml version="1.0" encoding="UTF-8"?>
<svg width="5in" height="5in" version="1.1" viewBox="0 0 127 127" xmlns="http://www.w3.org/2000/svg"><g transform="translate(0 -170)"><path d="m48.164 180.1-0.8923 0.28496-28.422 20.462-0.55179 0.75407-10.969 33.259v0.93619l10.678 33.354 0.54548 0.75933 28.243 20.704 0.88905 0.29198 35.018 0.14995 0.8923-0.28673 28.419-20.459 0.55475-0.75671 10.965-33.259v-0.93366l-10.675-33.353-0.54851-0.75934-28.24-20.708-0.88905-0.29199zm0.47612 3.0299 32.77 0.14994-7.0433 19.368-36.326 11.688-15.947-12.085zm34.958 0.82422 26.524 19.449 10.004 31.247-21.262-0.35161-22.328-30.922zm-26.874 1.7077c-0.78169-0.0176-1.6153 0.12451-2.5002 0.42176-1.7531 0.58134-2.9994 1.503-3.7361 2.7618-0.73952 1.2508-0.89929 2.7698-0.48234 4.5589l2.4055-0.53223c-0.37546-1.1609-0.34258-2.1746 0.09487-3.0457 0.43719-0.87158 1.1984-1.488 2.2889-1.85 1.0316-0.34196 1.9688-0.31215 2.8123 0.1 0.84912 0.39721 1.4236 1.0486 1.7214 1.9449 0.28383 0.85666 0.23218 1.8825-0.15231 3.0803-0.38721 1.1909-1.309 2.9401-2.7681 5.2495-0.94098 1.4854-1.6226 2.7435-2.043 3.7768-0.4122 1.0312-0.6336 2.0148-0.66832 2.9478-0.02455 0.56643 0.05699 1.1185 0.25542 1.6577l12.192-4.0451-0.72206-2.1745-9.0453 3.0017c0.11486-0.49453 0.29961-1.0087 0.55179-1.538 0.24963-0.53925 0.86411-1.6053 1.8445-3.1969 1.1707-1.9149 1.9711-3.3819 2.4055-4.4013 0.44289-1.0236 0.69752-1.9399 0.76293-2.7523 0.06488-0.81369-0.02277-1.5878-0.26813-2.3268-0.48155-1.4505-1.4014-2.4982-2.7587-3.137-0.67858-0.32004-1.4094-0.48401-2.1913-0.49716zm-14.44 4.3826-1.4598 0.48663c-0.12986 0.92874-0.52829 1.9724-1.1949 3.1338-0.66657 1.1609-1.5352 2.2495-2.6042 3.2664l0.7283 2.192c0.61816-0.49454 1.2813-1.1484 1.9893-1.9624 0.71654-0.8137 1.2606-1.5729 1.633-2.2719l4.7891 14.43 2.2669-0.74881zm-21.603 13.998 15.997 12.125-0.10987 38.158-16.382 11.703-9.8241-30.689zm80.913 0.46735c-1.9576 5e-3 -4.3199 0.95872-7.0843 2.8629-2.6365 1.815-4.2188 3.5991-4.7449 5.3438-0.51904 1.7402-0.28186 3.3632 0.7093 4.8712 0.58146 0.88375 1.3212 1.5254 2.2165 1.9199 0.89529 0.39719 1.882 0.50943 2.9605 0.33932 1.09-0.17448 2.1134-0.57957 3.0708-1.2383 1.457-1.0036 2.3645-2.2445 2.7208-3.7267 0.36775-1.4805 0.1523-2.823-0.63987-4.0294-0.45364-0.6892-1.0531-1.2358-1.8003-1.6353-0.74698-0.39983-1.6088-0.58396-2.5821-0.54451 1.5352-1.0386 2.8238-1.6752 3.8653-1.9174 1.0416-0.2499 1.9666-0.22447 2.7713 0.0526 0.61941 0.19992 1.1187 0.59888 1.4975 1.1759 0.47137 0.71637 0.60045 1.5054 0.38772 2.3618-0.13981 0.52435-0.52429 1.121-1.1539 1.7876l1.3272 1.7002c1.0895-0.96372 1.7267-2.0522 1.9107-3.2601 0.18725-1.2008-0.0974-2.3817-0.86083-3.5405-1.0221-1.5554-2.4177-2.3893-4.1869-2.5034-0.12733-6e-3 -0.25416-0.0176-0.38473-0.0176zm-26.72 0.19991 22.183 30.718-22.36 30.588-36.002-11.81 0.10987-37.89zm21.385 5.4292c0.12233 6e-3 0.24716 0.0176 0.369 0.0526 0.98517 0.14994 1.7452 0.63132 2.2827 1.4505 0.54177 0.82423 0.68558 1.7176 0.43192 2.6798-0.24717 0.95873-0.89704 1.8026-1.9516 2.5286-1.0963 0.7567-2.1438 1.0785-3.1433 0.96864-0.99965-0.1-1.7519-0.54891-2.2542-1.3107-0.34279-0.52435-0.51806-1.126-0.52654-1.8126-5.9e-4 -0.69181 0.20722-1.3731 0.62116-2.0472 0.41793-0.66639 0.94997-1.2234 1.5954-1.6677 0.86208-0.59449 1.7192-0.86894 2.5758-0.82597zm-29.933 11.06c-1.085 0.0263-2.0952 0.2499-3.0267 0.66902-1.8595 0.83387-3.2746 2.4442-4.2468 4.8299l3.1875 1.3408c0.50979-1.6328 1.3667-2.774 2.5727-3.4177 1.2059-0.64448 2.5798-0.72689 4.1207-0.25954 1.4578 0.44454 2.5032 1.2409 3.137 2.3918 0.64911 1.1435 0.78021 2.3493 0.39422 3.6194-0.368 1.2108-1.2565 2.3468-2.6672 3.4082-1.4071 1.0486-3.8816 2.3018-7.4217 3.7644-2.2799 0.93873-4.0792 1.83-5.3976 2.6736-1.3065 0.84615-2.3571 1.7876-3.1528 2.8282-0.48909 0.62955-0.83913 1.3332-1.0498 2.1121l17.227 5.2492 0.93648-3.08-12.781-3.8937c0.53224-0.47172 1.1574-0.91128 1.876-1.3158 0.72207-0.41474 2.2867-1.1335 4.6976-2.1621 2.8912-1.2458 4.9984-2.2769 6.3214-3.0928 1.3347-0.81106 2.3688-1.6578 3.1023-2.5348 0.73354-0.87885 1.2588-1.8376 1.5764-2.8816 0.62438-2.0523 0.42096-3.9944-0.61467-5.8264-1.0356-1.8325-2.8052-3.1285-5.3061-3.8908-1.2386-0.37704-2.3988-0.55416-3.4838-0.53224zm-42.184 3.0646c-1.3105 1.9e-4 -2.4005 0.0999-3.2663 0.27707-1.1632 0.2499-2.1511 0.61203-2.9668 1.096-0.82466 0.48401-1.4643 1.1135-1.9169 1.8875-0.46164 0.77598-0.71549 1.6902-0.75977 2.743-0.0596 1.4281 0.27515 2.6287 1.0026 3.6067 0.72777 0.96873 1.7893 1.7252 3.1875 2.267 1.3896 0.53135 3.2452 0.84876 5.5646 0.94618 3.6843 0.14993 6.3684-0.37967 8.0554-1.6053 1.4014-1.0236 2.1431-2.4817 2.2227-4.3731 0.0596-1.4355-0.27164-2.6377-0.9994-3.6067-0.73627-0.97862-1.8011-1.7326-3.1906-2.2644-1.3986-0.53223-3.2473-0.84876-5.5489-0.94627-0.48612-0.0175-0.94722-0.0263-1.3841-0.0263zm0.11732 2.4741c0.37029 4e-3 0.75969 0.0176 1.1634 0.0263 3.2115 0.1245 5.3364 0.60676 6.3749 1.4081 1.0391 0.7944 1.5347 1.7426 1.4882 2.8501-0.04732 1.106-0.61843 2.0173-1.7119 2.7304-1.102 0.7041-3.2617 0.98617-6.4821 0.85141-3.2205-0.12452-5.4099-0.64185-6.5704-1.523-0.90877-0.69884-1.3424-1.6028-1.2957-2.7081 0.04732-1.1235 0.61895-2.0372 1.7119-2.7431 0.95697-0.6243 2.7298-0.92373 5.3219-0.89876zm74.589 9.8462 21.284 0.35424-10.291 31.203-26.676 19.207-6.8226-19.976zm-83.99 4.5906-0.06227 1.5554c0.82992 0.4542 1.6732 1.2059 2.5317 2.252 0.85859 1.0462 1.5766 2.2545 2.1533 3.6291l2.3269 0.1c-0.24464-0.76109-0.62466-1.6178-1.1382-2.579-0.5133-0.96872-1.0351-1.7552-1.5639-2.3593l15.351 0.6471 0.09987-2.4093zm79.264 10.032c-1.254 0.12452-2.397 0.73654-3.4239 1.83-0.9672 1.0286-1.5292 2.1821-1.693 3.4648-0.16977 1.2883 0.0924 2.6222 0.78195 4.0009 0.69656 1.3856 1.9324 2.9131 3.7171 4.5906 1.7149 1.6128 3.2112 2.6451 4.4832 3.0991 0.47711 0.17449 0.94872 0.29462 1.4156 0.36213h3e-3c0.77768 0.12451 1.5392 0.0789 2.2889-0.0999 1.1936-0.28936 2.2172-0.88886 3.0708-1.7976 1.1819-1.2584 1.7342-2.7131 1.6583-4.3634-0.0824-1.6427-0.82838-3.1268-2.2447-4.458-1.3719-1.2908-2.8517-1.9324-4.4423-1.9199-1.5906 0.0176-2.9333 0.59624-4.0198 1.7526-0.65086 0.69181-1.0835 1.493-1.302 2.3993-0.21721 0.91884-0.21471 1.8076 0.01 2.6639-0.15728-0.1245-0.27687-0.24989-0.35302-0.31478-0.71129-0.66903-1.3292-1.4056-1.8538-2.222-0.52478-0.81634-0.87282-1.5454-1.0403-2.1821-0.16228-0.62868-0.17228-1.2582-0.0374-1.8849 0.12982-0.62167 0.43765-1.1934 0.93323-1.7202 0.57898-0.6164 1.2291-0.95872 1.9484-1.0236 0.71952-0.0789 1.5342 0.19993 2.4402 0.78915l1.3966-1.7902c-1.2301-0.89375-2.4756-1.2832-3.736-1.1634zm-56.217 4.9783 36.263 11.899 6.8068 19.938-32.789-0.14994-26.969-19.774zm61.637 2.1071c1.0603-6e-3 2.0335 0.40685 2.9226 1.2409 0.99091 0.93119 1.5294 1.9748 1.6206 3.1245 0.0924 1.1509-0.2197 2.1047-0.93648 2.8659-0.69257 0.73654-1.5714 1.0935-2.6389 1.071-0.13482-4e-3 -0.26763-6e-3 -0.40046-0.0263l3e-3 -3e-3c-0.92898-0.12451-1.831-0.5717-2.6925-1.3807-0.98443-0.92628-1.5137-1.9099-1.5891-2.9511-0.0749-1.0286 0.26264-1.9374 1.0089-2.7303 0.74024-0.78652 1.642-1.1934 2.702-1.2134zm-48.045 6.0976c-1.2828 0.0176-2.4445 0.33669-3.4807 0.96118-1.5072 0.90883-2.4532 2.2021-2.8407 3.878-0.28014 1.2134-0.18974 2.3168 0.27112 3.3136 0.45262 0.99617 1.2655 1.81 2.4372 2.4367-1.1035 0.17449-1.9793 0.55153-2.6294 1.1285-0.6614 0.58396-1.0983 1.3282-1.3085 2.2394-0.32952 1.4256-0.0596 2.7341 0.80388 3.9282 0.86307 1.2034 2.1933 1.9749 3.9883 2.3119 1.7856 0.33407 3.3254 0.1245 4.6251-0.65675 1.2998-0.77161 2.1169-1.8725 2.4467-3.2978 0.21719-0.94373 0.15231-1.8026-0.19474-2.5758-0.34828-0.77161-1.0046-1.438-1.9673-1.9998 1.325-0.0789 2.428-0.48663 3.3104-1.2233 0.87087-0.72865 1.4553-1.7326 1.7499-3.0077 0.39545-1.7126 0.10487-3.2583-0.87332-4.641-0.97968-1.3731-2.4829-2.2494-4.5116-2.6294-0.63386-0.1245-1.2423-0.17449-1.8255-0.17449zm0.45709 2.0498c0.28584 5e-3 0.58124 0.0526 0.88281 0.1 0.77591 0.14994 1.4598 0.45683 2.0525 0.92874 0.59072 0.48138 0.98467 1.0735 1.1822 1.78 0.1872 0.70409 0.2022 1.4006 0.04471 2.0872-0.25962 1.1235-0.86385 1.9873-1.8128 2.5915-0.95846 0.6015-2.0318 0.79353-3.219 0.56906-1.2154-0.22447-2.1361-0.79617-2.765-1.7052-0.63815-0.90875-0.82588-1.9424-0.55802-3.1023 0.26366-1.1409 0.87534-2.0073 1.8318-2.601 0.71725-0.44455 1.5037-0.65937 2.3613-0.64448zm-2.1029 9.9281c0.22964 5e-3 0.46638 0.0263 0.70927 0.0789 1.0004 0.1745 1.7449 0.63395 2.2352 1.3407 0.49033 0.70673 0.6271 1.523 0.4129 2.4492-0.18975 0.81896-0.6691 1.4631-1.4408 1.9324-0.7717 0.4691-1.638 0.61465-2.601 0.43403-0.95371-0.17449-1.6797-0.63132-2.1753-1.3557-0.50706-0.719-0.65814-1.518-0.45385-2.3993 0.19474-0.84615 0.67533-1.508 1.4376-1.9799 0.56328-0.34721 1.1882-0.5147 1.876-0.49715z" color="#000000" color-rendering="auto" dominant-baseline="auto" fill-opacity=".99471" image-rendering="auto" shape-rendering="auto" solid-color="#000000" style="font-feature-settings:normal;font-variant-alternates:normal;font-variant-caps:normal;font-variant-ligatures:normal;font-variant-numeric:normal;font-variant-position:normal;isolation:auto;mix-blend-mode:normal;paint-order:stroke markers fill;shape-padding:0;text-decoration-color:#000000;text-decoration-line:none;text-decoration-style:solid;text-indent:0;text-orientation:mixed;text-transform:none;white-space:normal"/></g></svg>
