<?xml version="1.0" encoding="UTF-8"?>
<svg width="5in" height="5in" version="1.1" viewBox="0 0 127 127" xmlns="http://www.w3.org/2000/svg"><g transform="translate(0 -170)"><path d="m62.83 173.52c-0.16868 4.2e-4 -0.30198 0.074-0.41724 0.14071l-0.02071-0.0164-53.317 30.034c0 7e-4 -0.023419 3e-3 -0.028127 6e-3l-0.023419 0.0247c-0.18273 0.11684-0.36499 0.3933-0.5503 0.93237l-0.21788 58.202c0.2085 0.66069 0.46527 0.95813 0.75156 1.0565l53.107 29.357c0.45308 0.1407 0.97013 0.43855 1.2426 0.16374v-2e-3c8.873-4.9226 22.149-12.287 33.224-18.431 5.5519-3.0798 10.547-5.8515 14.147-7.8487 1.8-0.99795 3.2498-1.8039 4.2484-2.3579 0.49992-0.27646 0.88509-0.49203 1.1449-0.63519 0.0584-0.0246 0.0798-0.0494 0.12654-0.074 0.0683 6.9e-4 0.14991-0.0164 0.2605-0.1407v-2e-3c0.13354-0.1407 0.30361-0.42126 0.55315-0.94175l-0.21088-58.468-0.0206-6e-3c-2e-3 -0.2345-0.14052-0.52001-0.52666-0.9277l-52.871-29.936c-0.23733-0.0938-0.43505-0.1407-0.60068-0.1407zm1.1657 2.9172 47.921 27.132-47.897 2.1483zm-2.1834 0.0164-0.47933 29.215-47.862-1.9819zm-18.437 11.99c-0.71172 0.62285-1.6605 1.2627-2.849 1.9234-1.1826 0.65163-2.4275 1.2064-3.7365 1.6586l-1.1093 1.7127c0.68901-0.18759 1.5155-0.48955 2.4762-0.88556 0.97552-0.40317 1.807-0.80551 2.4969-1.2042l-7.3252 11.355 1.8018 0.0247 9.4049-14.573zm9.1712 0.14069c-1.0615-0.0164-2.1305 0.25506-3.207 0.81786-1.0706 0.55044-2.1218 1.3471-3.1537 2.3933-1.0259 1.0355-2.0914 2.4121-3.1981 4.127-1.761 2.729-2.5467 4.7058-2.3579 5.9288 0.15229 1.0168 0.93382 1.5369 2.349 1.5603 1.0706 0.0164 2.1399-0.25507 3.207-0.81786 1.0765-0.56032 2.1277-1.3565 3.1537-2.3934 1.032-1.0448 2.1003-2.4214 3.2011-4.1272 0.92819-1.4384 1.5546-2.5828 1.8786-3.4346 0.33338-0.85045 0.49245-1.5743 0.48214-2.1717-6.96e-4 -0.59488-0.1968-1.0566-0.59178-1.3776-0.38444-0.32335-0.97176-0.49202-1.7631-0.50354zm29.031 0.074c-1.3581 0.0247-2.2401 0.39576-2.6448 1.1105-0.40998 0.70514-0.29097 1.7289 0.35796 3.065l1.8934 0.14069c-0.49994-0.88556-0.63793-1.5837-0.4142-2.085 0.22022-0.51341 0.74968-0.77506 1.5917-0.78988 0.797-0.0164 1.5757 0.21064 2.3371 0.67469 0.76514 0.45665 1.3461 1.0285 1.7425 1.7196 0.3753 0.65329 0.50322 1.3518 0.38163 2.0968-0.12182 0.74463-0.60045 1.7594-1.4288 3.0442-0.53462 0.82459-0.89166 1.5509-1.0709 2.1811-0.17102 0.62779-0.1968 1.258-0.07967 1.8906 0.08663 0.38918 0.24974 0.79152 0.49103 1.2135l9.4256-0.1876-0.95866-1.6657-6.9879 0.14069c0.01927-0.31594 0.09137-0.63024 0.21554-0.94176 0.11948-0.3184 0.45075-0.93007 0.99707-1.8273 0.65573-1.073 1.0767-1.9164 1.2662-2.5264 0.19446-0.61873 0.25302-1.2041 0.17571-1.7548-0.07967-0.55045-0.27997-1.1104-0.6035-1.6749-0.63253-1.1011-1.5638-2.0194-2.7928-2.7574-1.2285-0.73803-2.526-1.0918-3.8933-1.066zm-7.7097 0.1407-1.1271 0.0164c0.05155 0.61628-0.10308 1.258-0.46153 1.9257-0.36313 0.65823-0.90243 1.2253-1.6184 1.7009l0.95842 1.6656c0.43036-0.21063 0.86963-0.5134 1.3225-0.92069 0.45684-0.41714 0.78038-0.82936 0.97038-1.2299l6.334 11.035 1.7514-0.0493zm-22.289 1.2566c0.83777 0.0164 1.2813 0.41715 1.3342 1.2088 0.06331 0.79152-0.67495 2.381-2.2158 4.7692-1.535 2.3786-2.8432 3.9613-3.9229 4.7452-1.0704 0.78246-2.0204 1.1691-2.849 1.1573-0.82863-0.0164-1.2749-0.41715-1.3372-1.2111-0.04685-0.80139 0.70165-2.3959 2.2425-4.7839 1.535-2.3786 2.8995-4.0061 4.0945-4.8816 0.93967-0.68209 1.8252-1.0167 2.6537-1.005zm62.494 15.671-23.384 52.214-26.15-49.862 36.567-1.7688zm-102.79 0.11684 9.7747 0.40728 39.427 1.8156-25.907 49.566zm51.235 3.0266 26.268 49.965-52.338 0.0494zm52.217 0.64176 0.18973 52.282-3.6892-0.38425-18.869-1.9492zm-104.11 0.0938 2.9792 6.6209 19.221 43.046-22.398 2.3728zm20.079 4.3252c-1.3246 0.0938-2.4601 0.81044-3.4022 2.174-0.93546 1.3518-1.3145 2.7914-1.136 4.3162 0.17805 1.5251 0.81363 2.8156 1.9023 3.8698 0.71946 0.69772 1.4659 1.1034 2.2366 1.2205 0.77639 0.11685 1.579-0.0938 2.4082-0.60474-0.41795 1.1761-0.47816 2.3381-0.1804 3.4823 0.29801 1.1456 0.93054 2.1858 1.8965 3.1212 1.3065 1.2651 2.7199 1.8532 4.2395 1.7571 1.5263-0.0938 2.8169-0.92548 3.8756-2.4557 1.0652-1.5416 1.4909-3.1946 1.278-4.9672-0.22256-1.7828-0.97037-3.2918-2.2483-4.5294-0.91835-0.88794-1.8854-1.4033-2.8963-1.5416-1.0137-0.16374-1.9967 0.0938-2.9526 0.77506 0.25701-1.0542 0.26052-2.0194 0.0093-2.8904-0.25162-0.86919-0.72297-1.6376-1.4141-2.3076-1.0793-1.0426-2.2842-1.5181-3.6152-1.4221zm62.335 1.8578c-0.89799 0.0938-1.8545 0.57843-2.8727 1.4759l0.89352 2.2491c0.86096-0.87619 1.6793-1.2651 2.4555-1.1714 0.78458 0.0938 1.4286 0.61874 1.929 1.5907 0.47253 0.92308 0.62317 1.9 0.45567 2.9409-0.15228 1.0426-0.55945 1.9094-1.2248 2.5975-0.6309 0.65329-1.4628 1.0331-2.494 1.1386-1.031 0.0938-2.6104-0.11683-4.7394-0.65164-1.3691-0.3464-2.5096-0.52247-3.4229-0.52493-0.90804 0.0164-1.7378 0.18758-2.4881 0.52904-0.45238 0.23449-0.88111 0.55292-1.2869 0.9722l5.5945 10.905 1.6064-1.6657-4.1507-8.0886c0.42076-0.0938 0.86588-0.11684 1.3372-0.074 0.47979 0.0494 1.4556 0.21063 2.9259 0.55784 1.7582 0.40729 3.0859 0.62286 3.9821 0.64178 0.91016 0.0164 1.6968-0.0938 2.3638-0.37929 0.66768-0.27153 1.2759-0.69362 1.8194-1.258 1.0617-1.1015 1.7175-2.4868 1.9702-4.1602 0.25302-1.6727-0.02577-3.3026-0.83729-4.8844-0.80614-1.572-1.7854-2.4725-2.9378-2.7068-0.28604-0.0494-0.57936-0.074-0.87876-0.0494zm-62.264 0.60886c0.7888-0.0494 1.52 0.26 2.1923 0.91133 0.64379 0.62283 1.025 1.3869 1.1421 2.2936 0.10777 0.89486-0.09136 1.7079-0.59764 2.4378-0.52571 0.76106-1.1768 1.1643-1.9496 1.2065-0.77264 0.0494-1.5118-0.27892-2.2219-0.96759h-0.0027c-0.61404-0.59735-0.97552-1.3518-1.0859-2.2654-0.11948-0.92309 0.07027-1.7525 0.57702-2.4824 0.49853-0.71665 1.1484-1.0941 1.9466-1.1339zm6.6536 5.7039c0.99145-0.074 1.9271 0.33076 2.8076 1.1831 0.8722 0.84344 1.3857 1.8367 1.5443 2.9793 0.14994 1.1339-0.09138 2.1553-0.71898 3.065-0.40976 0.59239-0.92422 1.0143-1.5443 1.2721-0.6227 0.23696-1.2653 0.25342-1.926 0.0494-0.67002-0.21063-1.2632-0.58089-1.784-1.0871h-0.0027c-0.85135-0.82468-1.3614-1.8016-1.5265-2.9348-0.1593-1.1433 0.07497-2.1624 0.69532-3.0619 0.63513-0.91609 1.4548-1.4033 2.4555-1.4595zm-19.079 9.334c-0.3814 2e-3 -0.7867 0.16374-1.2131 0.52001-0.5721 0.45171-1.1034 1.1315-1.5917 2.0311-0.73985 1.3658-1.1803 2.8218-1.3255 4.3669-0.14759 1.5368 0.0063 2.7873 0.46456 3.7511 0.26333 0.55293 0.60115 0.91841 1.0118 1.1012 0.40599 0.18759 0.86752 0.14069 1.3846-0.16374-0.78599 1.4243-1.4502 2.3924-1.9939 2.905-0.54351 0.51341-1.0376 0.74708-1.4764 0.70019-0.33172-0.0494-0.60536-0.28139-0.82534-0.74544-0.26989-0.5669-0.3636-1.298-0.28113-2.1952 0.06322-0.55043 0.24692-1.23 0.55616-2.0405l-0.76021-1.3072c-0.54423 1.2299-0.84901 2.4535-0.90829 3.6713-0.06322 1.2276 0.12417 2.3053 0.56508 3.2307 0.59013 1.2393 1.3555 1.6797 2.2957 1.3189 1.0873-0.42127 2.3823-2.0171 3.8815-4.7866 1.3415-2.4777 2.1242-4.6377 2.352-6.4761 0.22022-1.8391 0.03979-3.3598-0.53555-4.5679-0.33455-0.70266-0.74289-1.1268-1.2278-1.2697-0.12182-0.0494-0.24552-0.0494-0.37273-0.0494zm87.558 0.35134-0.66863 1.5064 7.8104 14.206 0.43482-0.96761c-0.22022-0.86679-0.37274-1.9445-0.45263-3.2307-0.0749-1.2768-0.0515-2.5658 0.0703-3.8636l-0.91717-1.6704c-0.10074 0.66317-0.17335 1.4853-0.21553 2.4643-0.0421 0.99565-0.0351 1.8718 0.0234 2.6241zm-87.585 1.7336c0.35399 0.0164 0.64004 0.25754 0.85792 0.71912 0.1968 0.40974 0.30807 0.95583 0.33126 1.6282 0.02342 0.67221-0.06556 1.394-0.26333 2.1646-0.20147 0.76356-0.46433 1.4502-0.78996 2.05h0.0027c-0.50298 0.93007-1.0158 1.4502-1.5385 1.5602-0.52875 0.11685-0.94904-0.14069-1.2574-0.79892-0.31298-0.65822-0.41537-1.49-0.31065-2.4969 0.10074-0.99804 0.41818-1.9913 0.95561-2.9851 0.5564-1.0308 1.1009-1.6258 1.6359-1.7875 0.13354-0.0494 0.2577-0.0494 0.37578-0.0494zm37.324 2.8137c-1.6139-0.0164-2.9017 0.40316-3.8637 1.237-0.96218 0.82196-1.5197 2.0358-1.6685 3.6389l2.13 0.21064c0.01646-1.0659 0.32634-1.8906 0.93194-2.479 0.60584-0.60228 1.4106-0.89734 2.4112-0.89025 0.94695 5e-3 1.7093 0.29291 2.287 0.8668 0.58944 0.56196 0.88135 1.2604 0.87572 2.0897-0.0045 0.78495-0.33173 1.6165-0.98231 2.4941-0.65034 0.87848-1.9002 2.0663-3.7483 3.5619-1.1885 0.96282-2.1031 1.8156-2.7425 2.5531-0.62809 0.73804-1.0898 1.483-1.3846 2.2326-0.16634 0.46158-0.24763 0.94653-0.24857 1.4526l11.201 0.0659 0.0093-2.0031-8.3073-0.0493c0.23849-0.37518 0.53743-0.74462 0.89353-1.1081 0.35726-0.3752 1.1604-1.0847 2.4141-2.1319 1.5029-1.251 2.5743-2.2349 3.2129-2.9527 0.64964-0.72817 1.1159-1.4197 1.3993-2.0733 0.28323-0.65329 0.42826-1.3213 0.432-2.0008 0.0072-1.3236-0.46034-2.4402-1.4024-3.3489-0.94181-0.91107-2.2242-1.3679-3.849-1.3749zm13.053 0.074c-1.2264-6e-3 -2.2495 0.32336-3.0709 0.98627-0.82161 0.65165-1.4396 1.5884-1.855 2.8134-0.41583 1.2135-0.63138 2.8211-0.64191 4.8223-0.01709 3.1847 0.52782 5.4862 1.639 6.9022 0.91906 1.1784 2.1987 1.7711 3.8342 1.7782 1.2372 6e-3 2.2603-0.31842 3.0709-0.98166 0.82114-0.66317 1.4391-1.6001 1.855-2.8136 0.4163-1.2253 0.62879-2.832 0.6391-4.8224 0.0093-1.6774-0.11011-3.0144-0.36383-4.0056-0.24106-0.99098-0.58708-1.832-1.0355-2.5236-0.43715-0.69114-0.99964-1.2229-1.6863-1.5907-0.67589-0.3678-1.4698-0.5554-2.3845-0.56197zm35.584 1.3658c-0.78928-0.0659-1.452 0.48297-1.9881 1.6891-0.54118 1.2135-0.75295 2.5971-0.63301 4.1537 0.12417 1.5673 0.5215 2.9564 1.1892 4.1687 0.48002 0.86911 0.98067 1.422 1.5029 1.6563 0.5243 0.24848 1.0308 0.1407 1.5207-0.33982-0.1265 0.88327-0.12417 1.7149 0.0121 2.4969 0.13588 0.78 0.38539 1.4971 0.74546 2.153 0.56343 1.0238 1.1887 1.5696 1.8756 1.6353 0.68196 0.0659 1.2623-0.4262 1.7425-1.4994 0.47557-1.066 0.663-2.2678 0.56201-3.6064-0.10073-1.3377-0.43785-2.5245-1.006-3.5589-0.37555-0.6821-0.7607-1.1175-1.1596-1.3072-0.40225-0.1876-0.81668-0.0938-1.2426 0.25751l-3e-3 -2e-3c0.21085-0.97229 0.23755-1.9702 0.0773-2.994-0.16171-1.0235-0.49367-1.9934-0.99712-2.911-0.68175-1.2417-1.4136-1.9047-2.1982-1.9914zm-35.611 0.36119c0.96826 5e-3 1.7735 0.46652 2.4141 1.3845 0.65152 0.91841 0.97131 2.7694 0.95561 5.5559-0.01573 2.7762-0.35634 4.6255-1.0177 5.5471-0.65058 0.9231-1.4537 1.3822-2.4112 1.3752-0.95772-5e-3 -1.7629-0.46652-2.4141-1.3846-0.64121-0.9277-0.95373-2.7869-0.9378-5.5736 0.01573-2.7757 0.38609-4.6778 1.1123-5.7069 0.57468-0.80633 1.3412-1.2065 2.2987-1.1972zm-45.776 1.3096-7.7985 14.402 0.44091 0.93246c0.45262-0.37273 1.0027-0.59075 1.6507-0.65165 0.64307-0.0494 1.2848 0.0938 1.9201 0.43774l0.91718-1.6915c-0.32213-0.24848-0.72672-0.4517-1.21-0.61133-0.49197-0.16372-0.92702-0.21063-1.3077-0.14069l6.0737-11.219zm81.452 0.48216c0.16634 0.0246 0.33198 0.11684 0.50299 0.24107 0.34696 0.26494 0.65667 0.64178 0.9289 1.1363h-3e-3c0.4449 0.80797 0.71314 1.7125 0.80473 2.7101 0.0867 1.005-0.0258 1.8624-0.34015 2.5709-0.3226 0.72404-0.74359 1.0519-1.2604 0.98396-0.51119-0.0493-0.99543-0.50354-1.4556-1.3377-0.45449-0.82699-0.72812-1.743-0.81644-2.7485-0.082-0.99565 0.0375-1.8531 0.35493-2.5707 0.21084-0.46652 0.4737-0.77342 0.79278-0.9254 0.15931-0.074 0.3254-0.0938 0.49104-0.0494zm3.6596 7.3075c0.39921 0.0494 0.78364 0.40974 1.1538 1.0847 0.3212 0.58337 0.51472 1.2768 0.57679 2.0804 0.0679 0.81539-0.0258 1.5088-0.28394 2.0827-0.25326 0.56936-0.5878 0.82195-0.99988 0.76354-0.40765-0.0494-0.7853-0.3933-1.136-1.0332-0.33596-0.61132-0.5379-1.3143-0.60349-2.1085-0.0633-0.78988 0.0351-1.4712 0.29284-2.0452 0.26708-0.59735 0.60091-0.87151 0.99989-0.82469zm-19.514 14.015-25.676 29.534-25.792-29.457zm2.8253 0.25754 21.18 2.1881c-0.85228 0.47309-1.6095 0.89493-2.7928 1.551-3.5999 1.9983-8.5957 4.7689-14.147 7.8489-9.2176 5.1138-19.199 10.652-27.653 15.342zm-57.122 0.074 23.348 26.67-44.628-24.67zm34.155 1.8836-1.9023 0.0247 0.1921 15.546 1.2248-0.0164c0.31604-0.67222 0.86635-1.3728 1.6538-2.0991 0.7874-0.71664 1.7107-1.3354 2.7662-1.8485l-0.02342-1.8273c-0.58708 0.23449-1.2473 0.55784-1.9792 1.0003-0.74148 0.45171-1.3342 0.89733-1.781 1.3354zm-10.349 0.1876-1.9023 0.0246 0.04684 3.7011-2.0946 0.0246 0.02071 1.7407 2.0946-0.0246 0.12417 10.044 1.5472-0.0247 6.9405-10.13-0.02342-1.7407-6.7098 0.0938zm4.9199 5.3787-4.7661 7.0498-0.08673-6.9878zm-31.623 0.18758c-0.47066-7e-4 -0.88509 0.0493-1.2426 0.16374-0.7246 0.21062-1.1365 0.59486-1.2337 1.1713-0.1312 0.77342 0.33478 1.5275 1.3935 2.2632 1.2267 0.84805 3.277 1.6282 6.1536 2.338 2.5739 0.63272 4.463 0.85273 5.6684 0.66069 1.1967-0.21063 1.8608-0.67468 1.988-1.4291 0.07496-0.43772-0.07496-0.88318-0.44371-1.3307-0.36687-0.45419-0.93546-0.8762-1.7069-1.2697-0.77053-0.39822-1.6221-0.71254-2.5591-0.94416-1.4195-0.34885-2.6152-0.42372-3.5857-0.21063-0.9699 0.1876-1.5052 0.59736-1.6064 1.1995-0.0586 0.34475 0.0539 0.71254 0.33126 1.1058 0.26942 0.39164 0.72016 0.77753 1.355 1.162-1.4937-0.37684-2.6286-0.74709-3.4052-1.1081-0.77663-0.3612-1.3555-0.73556-1.7336-1.1245-0.28605-0.29291-0.40389-0.58335-0.35493-0.87388 0.06086-0.35379 0.37273-0.5883 0.93499-0.7076 0.3554-0.0493 0.89516-0.0493 1.6184 0.0494l0.0093-0.93477v-2e-3c-0.58358-0.0938-1.1093-0.16373-1.5797-0.16373zm58.657 0.074-1.6359 0.1407-2.2781 2.6806-3.4762 0.274-0.648 0.75694 3.4762-0.27398-0.70704 0.83636 1.6331-0.14069 0.71009-0.83636 9.4345-0.74462 0.52665-0.61873zm-0.63324 0.74298 4.9199 1.4173-6.5648 0.52zm-51.448 1.5036c0.41608 0.0493 0.88369 0.11683 1.3993 0.23861 1.0692 0.26247 1.892 0.60722 2.4703 1.0355 0.5789 0.42373 0.8366 0.82937 0.77217 1.2088-0.04458 0.25506-0.23685 0.46652-0.57983 0.62778-0.34274 0.16374-0.8141 0.23696-1.4141 0.23449-0.5988-0.0164-1.211-0.0938-1.8341-0.246h-0.0027c-0.96358-0.23861-1.7161-0.56937-2.2544-0.99796-0.54843-0.43114-0.78716-0.85043-0.71899-1.2534 0.07027-0.40974 0.42309-0.67715 1.065-0.79892 0.31627-0.074 0.68174-0.074 1.0976-0.0494z" color="#000000" color-rendering="auto" dominant-baseline="auto" fill-opacity=".99471" image-rendering="auto" shape-rendering="auto" solid-color="#000000" style="font-feature-settings:normal;font-variant-alternates:normal;font-variant-caps:normal;font-variant-ligatures:normal;font-variant-numeric:normal;font-variant-position:normal;isolation:auto;mix-blend-mode:normal;paint-order:stroke markers fill;shape-padding:0;text-decoration-color:#000000;text-decoration-line:none;text-decoration-style:solid;text-indent:0;text-orientation:mixed;text-transform:none;white-space:normal"/></g></svg>
