<?xml version="1.0" encoding="UTF-8"?>
<svg width="2in" height="2in" version="1.1" viewBox="0 0 50.8 50.8" xmlns="http://www.w3.org/2000/svg"><g transform="translate(0 -246.2)"><path d="m24.921 251.71c-0.07176-3e-3 -0.14154 0.0268-0.18936 0.0818l-22.398 28.063c-0.10752 0.12427-0.059937 0.31746 0.092996 0.37755l29.575 12.344 0.19128 0.0753c0.09956 0.0391 0.21296 7e-3 0.27734-0.0784l0.14872-0.1971 14.692-19.492c0.07319-0.0971 0.06146-0.2338-0.02718-0.31704l-21.985-20.575-0.22097-0.21438c-0.03453-0.0333-0.07834-0.0555-0.12564-0.0636-0.01021-2e-3 -0.02051-3e-3 -0.03081-3e-3zm0.31086 1.2634 21.186 19.827-13.987 18.556c-2.3998-12.795-4.7997-25.589-7.1996-38.384zm-0.75484 0.27436c2.3998 12.794 4.7995 25.588 7.1992 38.382l-28.28-11.837zm3.4205 4.1262-0.41509 0.33381 1.4881 5.9115 0.58664 0.76282 1.7963-1.4441 1.2478 1.6228 0.50849-0.40877-1.248-1.6228 0.55916-0.44965-0.58664-0.76284-0.55916 0.44953zm-4.4625 1.1417-4.703 3.9423-0.14756 0.92124 3.6638 1.2949-0.31369 1.9597 1.0368 0.36645 0.31383-1.9597 1.1406 0.40309 0.14743-0.92123-1.1406-0.40309 0.84926-5.3042zm4.9816 0.60327 2.3502 3.0561-1.2965 1.0424zm-5.43 0.94317-0.5909 3.6907-2.6441-0.93452zm19.213 10.617c0.17282 0.25407 0.3944 0.54497 0.66468 0.87274 0.27147 0.33062 0.51834 0.60258 0.74078 0.81585l-4.0158-0.75509 0.32287 0.77288 5.1538 0.96896-0.20818-0.49802c-0.27796-0.17624-0.60234-0.44831-0.97322-0.8161-0.37087-0.36777-0.72945-0.78329-1.0758-1.2467zm-28.533 3.1698-0.89053 0.37588 1.5623 3.7012c-0.21161-0.032-0.4332-0.0921-0.66455-0.18045-0.23478-0.0869-0.70278-0.30986-1.4042-0.66881-0.84383-0.42822-1.4872-0.7167-1.93-0.86537-0.44426-0.15204-0.83832-0.22821-1.1822-0.2287-0.34385-6.1e-4 -0.6667 0.0631-0.96871 0.19051-0.5937 0.2506-1.0023 0.67171-1.2256 1.2633-0.22335 0.59158-0.18219 1.2494 0.12345 1.9735 0.30273 0.71723 0.73091 1.2098 1.2846 1.4774 0.55026 0.26911 1.1943 0.28624 1.9323 0.0516l-0.30415-0.9936c-0.47503 0.19648-0.90289 0.21739-1.2836 0.0627-0.38065-0.15469-0.66507-0.4551-0.85338-0.90124-0.17817-0.42212-0.19534-0.81715-0.051496-1.1851 0.13899-0.37 0.39202-0.63248 0.75923-0.78748 0.35004-0.14774 0.78322-0.16078 1.2996-0.0391 0.5129 0.12314 1.2788 0.45278 2.2977 0.98908 0.65548 0.34599 1.2073 0.59017 1.6556 0.73253 0.44678 0.13891 0.86687 0.20023 1.2602 0.18379 0.23924-8e-3 0.4689-0.0625 0.68905-0.16355zm22.461 5.8784c-0.56987 3e-3 -1.1275 0.24256-1.6731 0.71679-0.54686 0.47776-0.94505 1.0573-1.1944 1.7385-0.18444 0.50381-0.24184 0.92186-0.17219 1.2542 0.06838 0.33583 0.2562 0.55577 0.56342 0.66003-0.32606 0.16489-0.60763 0.38618-0.84475 0.66378-0.23712 0.27759-0.41745 0.58495-0.54085 0.922-0.12989 0.3548-0.18066 0.68958-0.15245 1.0044 0.02549 0.31489 0.1396 0.56193 0.34233 0.74118 0.20142 0.18279 0.46186 0.27314 0.78141 0.27112 0.46334-3e-3 0.91576-0.18266 1.3572-0.53942 0.44015-0.3532 0.82179-0.85122 1.1448-1.4939l-0.65669-0.16575c-0.22471 0.46866-0.47317 0.82069-0.74529 1.056-0.27213 0.23534-0.54797 0.35385-0.82758 0.35562-0.28227 2e-3 -0.47046-0.11208-0.56446-0.34156-0.09398-0.22949-0.07657-0.51982 0.052-0.87106 0.16236-0.44349 0.40495-0.77247 0.72788-0.98689 0.32292-0.21442 0.63756-0.32261 0.94381-0.32453 0.02929-1.5e-4 0.06652 3e-3 0.11182 0.01l0.38774-0.84139c-0.22835 0.0723-0.41044 0.1088-0.54627 0.10964-0.33287 2e-3 -0.55444-0.1399-0.66492-0.42592-0.1118-0.28246-0.08728-0.64369 0.07378-1.0836 0.16886-0.46123 0.42761-0.84862 0.77626-1.1623 0.34597-0.31369 0.68816-0.47164 1.0264-0.47378 0.28495-2e-3 0.48374 0.11556 0.59644 0.35201 0.10874 0.24002 0.10496 0.63123-0.01123 1.1735l0.7658-0.13234c0.18966-0.64896 0.19012-1.1763 8.45e-4 -1.5822-0.19149-0.40585-0.54427-0.60728-1.0582-0.60405zm-11.346 0.11802c-0.3083-3e-3 -0.61517 0.0569-0.92084 0.17904-0.67789 0.27079-1.1135 0.736-1.3068 1.3958-0.19136 0.66341-0.10634 1.3435 0.25488 2.0402 0.26717 0.5153 0.60312 0.89799 1.0081 1.148 0.40681 0.25363 0.84434 0.35268 1.3126 0.29706-0.23021 0.29346-0.35268 0.61389-0.36748 0.96148-0.01477 0.34758 0.06711 0.69374 0.24585 1.0385 0.18814 0.36288 0.45142 0.67162 0.78992 0.92627 0.33533 0.2559 0.71094 0.4125 1.1268 0.46976 0.41777 0.0609 0.81676 0.0154 1.1969-0.13646 0.55119-0.22017 0.91805-0.58573 1.1005-1.0966 0.18436-0.50731 0.15849-1.1102-0.0775-1.8088l-0.94561 0.16755c0.185 0.50431 0.22875 0.92041 0.13117 1.2485-0.09755 0.32808-0.31259 0.55863-0.64519 0.69151-0.33578 0.13412-0.67094 0.12555-1.0055-0.0255-0.33453-0.15111-0.59502-0.40617-0.78129-0.76543-0.23516-0.45359-0.26342-0.84751-0.08487-1.1816 0.17853-0.33414 0.44989-0.57398 0.81417-0.7195 0.03486-0.0139 0.08265-0.0286 0.14344-0.0441l-0.35085-0.89802c-0.20312 0.16875-0.38536 0.28541-0.54691 0.34994-0.39595 0.15817-0.79848 0.14152-1.2075-0.0499-0.4071-0.18781-0.72728-0.50674-0.96058-0.95672-0.24459-0.47174-0.31029-0.92291-0.19709-1.3536 0.11002-0.42942 0.36621-0.72455 0.76851-0.88524 0.33894-0.1354 0.69021-0.12889 1.0538 0.0193 0.36235 0.15312 0.73653 0.48767 1.1226 1.0036l0.78759-0.47235c-0.40131-0.64129-0.91138-1.0903-1.5301-1.3469-0.31091-0.12766-0.62054-0.19288-0.92884-0.19567z" color="#000000" color-rendering="auto" dominant-baseline="auto" image-rendering="auto" shape-rendering="auto" solid-color="#000000" style="font-feature-settings:normal;font-variant-alternates:normal;font-variant-caps:normal;font-variant-ligatures:normal;font-variant-numeric:normal;font-variant-position:normal;isolation:auto;mix-blend-mode:normal;shape-padding:0;text-decoration-color:#000000;text-decoration-line:none;text-decoration-style:solid;text-indent:0;text-orientation:mixed;text-transform:none;white-space:normal"/></g></svg>
