<?xml version="1.0" encoding="UTF-8"?>
<svg width="5in" height="5in" version="1.1" viewBox="0 0 127 127" xmlns="http://www.w3.org/2000/svg"><g transform="translate(0 -170)"><path d="m79.677 184.23-50.157 17.167-0.2307 0.69548-0.33909 0.11145 0.03694 47.116 0.15316 0.48595 21.544 30.812 0.38557-0.12979 0.62126 0.41884 49.73-20.482 0.52216-0.78085v-45.045l-0.25248-0.16666 0.0942-0.31918-21.154-29.568zm-0.04796 1.8028 20.156 28.172-48.094 18.756-15.416-22.711-5.1654-7.6105zm-16.796 10.141-1.694 0.77714c-0.035 1.1387-0.37818 2.4558-1.0292 3.9486-0.65081 1.493-1.5532 2.9235-2.7074 4.2928l1.1604 2.5533c0.67978-0.67879 1.393-1.556 2.1395-2.6316 0.7562-1.0794 1.3129-2.0685 1.6698-2.9654l7.6504 16.83 2.6285-1.2056zm-32.199 8.7658 0.8926 1.315 19.005 27.998v43.2l-19.862-28.407zm69.627 10.893v43.244l-48.048 19.79v-44.296zm-63.902 12.362-1.8645 7.4779 2.2192 3.2152c0.35011-0.0925 0.83169 0.0925 1.4445 0.55824 0.61278 0.45596 1.3 1.1852 2.0617 2.1897 1.2256 1.6154 2.2147 3.3106 2.9676 5.0857 0.76155 1.7861 1.1423 3.3579 1.1423 4.7126 0 1.4244-0.39386 2.0492-1.1816 1.8727-0.78795-0.18562-1.7509-1.0145-2.889-2.5148-0.94539-1.2463-1.7553-2.6171-2.4293-4.1126-0.66538-1.493-1.0897-2.9673-1.2736-4.4234l-2.482-3.0602c0.15687 1.8343 0.78813 3.9722 1.8911 6.4113 1.1119 2.4506 2.543 4.83 4.2938 7.1378 2.136 2.8156 3.8212 4.2538 5.0555 4.3151 1.0155 0.0521 1.5231-0.78081 1.5231-2.5312 0-1.838-0.5777-4.104-1.7331-6.7971-1.1556-2.6932-2.5737-5.1475-4.2545-7.3629-1.2693-1.673-2.4818-2.8668-3.6374-3.5807l1.0375-3.8312 7.6817 10.125v-2.2694zm43.131 5.9259c-0.77576-0.0125-1.5953 0.11146-2.4591 0.34847-2.0039 0.57126-3.6856 1.6304-5.0456 3.176-1.3599 1.5338-2.2413 3.4058-2.6441 5.6154l3.1033-0.33026c0.24697-1.5987 0.77761-2.8955 1.5921-3.8918 0.81452-0.99603 1.8262-1.6674 3.0355-2.0118 1.2208-0.34847 2.2129-0.25608 2.9763 0.28012 0.7634 0.53413 1.1388 1.3762 1.1265 2.5257-0.01563 1.4504-0.55702 2.6761-1.6243 3.675-1.067 0.99966-2.2626 1.6877-3.587 2.0655-0.12737 0.0392-0.29384 0.0744-0.50095 0.11146l-0.37526 2.8498c0.87783-0.48205 1.6106-0.80681 2.1978-0.97375 1.4395-0.40973 2.6205-0.28009 3.5431 0.39537 0.92268 0.66212 1.3765 1.7138 1.3609 3.1534-0.01625 1.5097-0.53674 2.9194-1.5611 4.2303-1.0129 1.3076-2.2511 2.1698-3.7136 2.5871-1.2322 0.3524-2.2759 0.26118-3.1312-0.26902-0.84368-0.54715-1.4343-1.6563-1.7721-3.3312l-3.114 1.3057c0.18456 2.0654 1.0008 3.5568 2.4488 4.4744 1.4596 0.91439 3.3005 1.0554 5.5231 0.4208 2.4645-0.70292 4.5113-2.0573 6.1403-4.0614 1.6292-2.0159 2.4559-4.138 2.4801-6.3671 0.01812-1.6488-0.38187-2.9004-1.1992-3.755-0.81729-0.86612-1.9727-1.2594-3.4661-1.1815 1.1575-0.86241 2.0347-1.8305 2.6319-2.9037 0.59709-1.0739 0.90201-2.1613 0.91383-3.264 0.01229-1.161-0.28645-2.1694-0.89721-3.0254-0.5991-0.85871-1.4775-1.4188-2.6342-1.6784-0.43373-0.0925-0.88336-0.14833-1.3487-0.16666z" color="#000000" color-rendering="auto" dominant-baseline="auto" fill-opacity=".99471" image-rendering="auto" shape-rendering="auto" solid-color="#000000" style="font-feature-settings:normal;font-variant-alternates:normal;font-variant-caps:normal;font-variant-ligatures:normal;font-variant-numeric:normal;font-variant-position:normal;isolation:auto;mix-blend-mode:normal;paint-order:stroke markers fill;shape-padding:0;text-decoration-color:#000000;text-decoration-line:none;text-decoration-style:solid;text-indent:0;text-orientation:mixed;text-transform:none;white-space:normal"/></g></svg>
