<?xml version="1.0" encoding="UTF-8"?>
<svg width="5in" height="5in" version="1.1" viewBox="0 0 127 127" xmlns="http://www.w3.org/2000/svg"><g transform="translate(0 -170)"><path d="m61.618 178.22c-0.0091 6.1e-4 -0.19177 0.0141-0.19177 0.0141 0 2e-4 -0.16378 0.0421-0.16378 0.0421s0.03226 0.0799 0.05612 0.13958l-0.10185-0.0996-40.187 18.482c-0.08985 0.021-0.19374 0.0631-0.32533 0.13959-0.21092 0.11994-0.37926 0.41944-0.34553 0.35913l-0.1238 0.44961-0.47915 51.728 0.05612 0.014c-0.04 0.17956-0.04416 0.43138 0.08986 0.68319 0.15375 0.2953 0.44415 0.45523 0.63809 0.50924 0.03018 0.014 0.04559 1e-3 0.07589 5e-3l41.653 28.52 1.0593-0.014c6.6178-4.8246 16.678-12.051 25.022-18.081 4.172-3.015 7.9163-5.7296 10.588-7.6974 1.3359-0.98466 2.4038-1.7816 3.1299-2.3405 0.36313-0.27987 0.63655-0.49732 0.83224-0.66285 0.0978-0.08 0.16975-0.13959 0.25483-0.23779 0.0442-0.0421 0.0879-0.0631 0.18378-0.24971 0.0443-0.08 0.15579-0.22375 0.10388-0.55552l-0.47936-51.622-0.0839-0.37316c-0.16974-0.37176-0.4022-0.44962-0.52467-0.50152-0.0498-0.021-0.0702-0.021-0.10584-0.0421l-40.011-18.401-0.01964-5e-3c-0.14779-0.08-0.1957-0.0996-0.25981-0.11995-0.01964-5e-3 0.07989-4.2e-4 -0.17978-0.0631-0.03226-5e-3 -0.15179-0.021-0.15978-0.021h-0.0024zm0.47157 0.15994h0.0047c0.0024 2e-3 0.0024 2e-3 0.0047 5e-3 -0.0024-1e-3 -0.0098-5e-3 -0.0098-5e-3zm0.17578 0.13958h0.0024c0.0036 2e-3 0.0047 2e-3 0.0047 2e-3s0.02387 0.0421 0.04422 0.0631c-0.02387-0.0421-0.03369-0.0421-0.04982-0.0631zm-0.66088 2.4566 39.325 67.577-77.88-0.26585zm-2.2548 0.21183-37.728 64.836 0.44379-47.688zm4.4995 0 37.284 17.148 0.44414 47.688-12.129-20.84zm-22.659 14.918c-0.88996-0.021-2.0745 0.55905-3.5536 1.7356l-0.1358 2.4414c1.123-0.99063 2.0149-1.452 2.676-1.3881 0.6611 0.0631 1.0126 0.61936 1.0567 1.6676 0.04422 0.99063-0.22586 2.0583-0.80208 3.2057-0.5676 1.1484-1.286 2.1091-2.1564 2.8828-0.82984 0.73699-1.727 1.1844-2.6911 1.3381-0.95606 0.13959-2.2713-0.0421-3.9471-0.53939-1.0775-0.32967-2.0209-0.47697-2.8298-0.44331-0.80847 0.0421-1.6209 0.27146-2.4389 0.68881-0.49591 0.24761-1.008 0.61515-1.5361 1.1024l0.4943 11.71 2.111-1.8774-0.36832-8.6886c0.409-0.11995 0.81706-0.15993 1.2233-0.13959 0.41441 0.0141 1.2017 0.17957 2.3632 0.50713 1.4002 0.37738 2.4959 0.56116 3.2888 0.54923 0.79329-3e-3 1.5434-0.15993 2.2472-0.49101 0.70381-0.32546 1.4128-0.80685 2.1287-1.442 1.4074-1.2502 2.5655-2.7935 3.4755-4.6306 0.90993-1.8374 1.3303-3.6068 1.2584-5.3065-0.0719-1.6836-0.5716-2.6316-1.5007-2.8425-0.1158-0.0421-0.23624-0.0421-0.36327-0.0421zm37.844 0.28969-1.8234 5.6773 11.037 10.401 0.75414-1.0445c-0.56844-0.72703-0.99202-1.432-1.2686-2.1161-0.2864-0.69301-0.35773-1.2662-0.21191-1.7176 0.23329-0.72696 0.87099-0.94665 1.9117-0.66074 1.0423 0.28127 2.3412 1.0565 3.8942 2.3228 1.6335 1.3341 2.8693 2.6355 3.7075 3.9093 0.83863 1.2742 1.149 2.2483 0.9307 2.9231-0.17978 0.56114-0.68165 0.75894-1.5057 0.5892-0.83263-0.17957-1.9633-0.7849-3.3897-1.8135l-0.23189 1.6697c1.8953 1.428 3.5132 2.2772 4.8526 2.5446 1.3411 0.26164 2.1786-0.11995 2.512-1.1644 0.40704-1.2662-0.16974-2.9986-1.7302-5.1956-1.2688-1.7954-2.9064-3.5099-4.9131-5.1476-2.1075-1.7196-3.942-2.7865-5.5032-3.1955-1.5612-0.40964-2.5018-0.11994-2.8222 0.88276-0.24164 0.75291-0.0047 1.8494 0.70122 3.2914l-5.763-5.478 1.463-4.555zm-16.822 18.873c-1.9261 0-3.4683 0.63339-4.6281 1.8993-1.1598 1.2662-1.7404 2.8296-1.7404 4.6886 0 1.2324 0.27019 2.2898 0.81466 3.1728 0.54466 0.88275 1.3827 1.5618 2.512 2.0379-1.3513 0.40753-2.3938 1.1764-3.13 2.3026-0.72618 1.1165-1.0895 2.5026-1.0895 4.164 0 2.2308 0.66888 4.0952 2.0101 5.5941 1.3413 1.4879 3.1081 2.2321 5.2965 2.2321 2.1883 0 3.9526-0.74492 5.2939-2.2321 1.3413-1.4879 2.0126-3.3239 2.0126-5.5083 0-1.5798-0.35829-2.9371-1.0745-4.0757-0.70581-1.1384-1.7408-1.9652-3.1022-2.4768 1.0993-0.47697 1.9171-1.1524 2.4515-2.0227 0.54466-0.88283 0.81726-1.9153 0.81726-3.0997 0-1.8594-0.58815-3.4342-1.7681-4.724-1.18-1.3022-2.7397-1.9513-4.676-1.9513zm0.03369 2.5802c1.0286 0 1.8868 0.39561 2.5726 1.1844 0.69582 0.77887 1.0441 1.7396 1.0441 2.8903 0 1.1045-0.33809 2.0402-1.0138 2.8071-0.66566 0.75496-1.5237 1.1324-2.5726 1.1324-1.0791 0-1.9575-0.38367-2.6331-1.1504-0.67569-0.76688-1.0138-1.7535-1.0138-2.961 0-1.0685 0.34335-1.9872 1.029-2.754 0.68586-0.76695 1.549-1.1504 2.5877-1.1504zm-0.04768 10.58c1.311 0 2.4014 0.49311 3.2687 1.4799 0.87738 0.98664 1.3166 2.2349 1.3166 3.7454 0 1.4879-0.42661 2.7128-1.2736 3.677-0.84721 0.96461-1.9199 1.448-3.2207 1.448-0.83703 0-1.6195-0.22375-2.3456-0.67898-0.72618-0.46505-1.2762-1.1165-1.6495-1.9512-0.36306-0.83688-0.54227-1.7036-0.54227-2.5978 0-1.464 0.41679-2.6836 1.2534-3.6596 0.84701-0.97667 1.9123-1.462 3.193-1.462zm37.698 21.97c-0.61375 0.46155-1.1694 0.88276-2.0479 1.5299-2.6618 1.9613-6.3998 4.6736-10.57 7.6875-8.1655 5.9007-17.879 12.88-24.507 17.708l-38.944-26.666zm-36.154 3.8386-2.8474 0.021c0.01964 1.3581-0.18973 2.9008-0.62294 4.6279-0.44078 1.7336-1.0855 3.3717-1.9345 4.9132-0.84882 1.5418-1.6876 2.7269-2.5146 3.5536l0.01964 2.1438 10.098-0.08-0.02386-2.7415-6.7164 0.0561c1.3725-1.7555 2.4661-3.744 3.2812-5.9649 0.80827-2.2207 1.2299-4.397 1.261-6.5273z" color="#000000" color-rendering="auto" dominant-baseline="auto" fill-opacity=".99471" image-rendering="auto" shape-rendering="auto" solid-color="#000000" style="font-feature-settings:normal;font-variant-alternates:normal;font-variant-caps:normal;font-variant-ligatures:normal;font-variant-numeric:normal;font-variant-position:normal;isolation:auto;mix-blend-mode:normal;paint-order:stroke markers fill;shape-padding:0;text-decoration-color:#000000;text-decoration-line:none;text-decoration-style:solid;text-indent:0;text-orientation:mixed;text-transform:none;white-space:normal"/></g></svg>
