<?xml version="1.0" encoding="UTF-8" standalone="no"?>
<svg
   xmlns:dc="http://purl.org/dc/elements/1.1/"
   xmlns:cc="http://creativecommons.org/ns#"
   xmlns:rdf="http://www.w3.org/1999/02/22-rdf-syntax-ns#"
   xmlns:svg="http://www.w3.org/2000/svg"
   xmlns="http://www.w3.org/2000/svg"
   id="svg2334"
   version="1.1"
   viewBox="0 0 127 127"
   height="5in"
   width="5in">
  <defs
     id="defs2328" />
  <metadata
     id="metadata2331">
    <rdf:RDF>
      <cc:Work
         rdf:about="">
        <dc:format>image/svg+xml</dc:format>
        <dc:type
           rdf:resource="http://purl.org/dc/dcmitype/StillImage" />
        <dc:title></dc:title>
      </cc:Work>
    </rdf:RDF>
  </metadata>
  <g
     transform="translate(0,-169.99998)"
     id="layer1">
    <path
       style="color:#000000;font-style:normal;font-variant:normal;font-weight:normal;font-stretch:normal;font-size:medium;line-height:normal;font-family:sans-serif;font-variant-ligatures:normal;font-variant-position:normal;font-variant-caps:normal;font-variant-numeric:normal;font-variant-alternates:normal;font-feature-settings:normal;text-indent:0;text-align:start;text-decoration:none;text-decoration-line:none;text-decoration-style:solid;text-decoration-color:#000000;letter-spacing:normal;word-spacing:normal;text-transform:none;writing-mode:lr-tb;direction:ltr;text-orientation:mixed;dominant-baseline:auto;baseline-shift:baseline;text-anchor:start;white-space:normal;shape-padding:0;clip-rule:nonzero;display:inline;overflow:visible;visibility:visible;opacity:1;isolation:auto;mix-blend-mode:normal;color-interpolation:sRGB;color-interpolation-filters:linearRGB;solid-color:#000000;solid-opacity:1;vector-effect:none;fill:#000000;fill-opacity:0.99470903;fill-rule:nonzero;stroke:none;stroke-width:2.12876415;stroke-linecap:round;stroke-linejoin:bevel;stroke-miterlimit:4;stroke-dasharray:none;stroke-dashoffset:45.35433197;stroke-opacity:1;paint-order:stroke markers fill;color-rendering:auto;image-rendering:auto;shape-rendering:auto;text-rendering:auto;enable-background:accumulate"
       d="m 48.163837,180.10161 -0.892299,0.28496 -28.422331,20.46162 -0.551789,0.75407 -10.9685442,33.25859 v 0.93619 l 10.6784762,33.35356 0.54548,0.75933 28.242652,20.70423 0.88905,0.29198 35.017983,0.14995 0.8923,-0.28673 28.419205,-20.45863 0.55475,-0.75671 10.96538,-33.25858 v -0.93366 l -10.67532,-33.35346 -0.54851,-0.75934 -28.239505,-20.70756 -0.88905,-0.29199 z m 0.476123,3.02988 32.770015,0.14994 -7.043319,19.36759 -36.326395,11.68753 -15.946778,-12.08473 z m 34.958035,0.82422 26.524385,19.44949 10.00378,31.24732 -21.262365,-0.35161 -22.328048,-30.92245 z m -26.874329,1.70771 c -0.781688,-0.0176 -1.615314,0.12451 -2.500153,0.42176 -1.753136,0.58134 -2.999423,1.50297 -3.73606,2.76175 -0.739518,1.2508 -0.899288,2.76981 -0.482343,4.5589 l 2.405508,-0.53223 c -0.375465,-1.16093 -0.342581,-2.17463 0.09487,-3.04567 0.437187,-0.87158 1.198378,-1.48798 2.288912,-1.85003 1.03161,-0.34196 1.968841,-0.31215 2.812274,0.1 0.84912,0.39721 1.423578,1.0486 1.721427,1.9449 0.283826,0.85666 0.232184,1.88246 -0.152306,3.0803 -0.387206,1.19091 -1.308984,2.9401 -2.768131,5.2495 -0.940981,1.48543 -1.622571,2.74351 -2.042996,3.77685 -0.412198,1.03115 -0.633601,2.01478 -0.668324,2.94781 -0.02455,0.56643 0.05699,1.11849 0.255419,1.65774 l 12.191818,-4.04508 -0.722063,-2.17454 -9.04534,3.00174 c 0.114859,-0.49453 0.299612,-1.00871 0.551788,-1.53796 0.249629,-0.53925 0.864109,-1.6053 1.844507,-3.19692 1.170666,-1.91491 1.971088,-3.38193 2.405502,-4.40133 0.442887,-1.02361 0.697518,-1.9399 0.762931,-2.75229 0.06488,-0.81369 -0.02277,-1.58785 -0.268134,-2.32684 -0.481554,-1.45054 -1.40136,-2.49818 -2.758675,-3.13704 -0.678576,-0.32004 -1.409352,-0.48401 -2.191293,-0.49716 z m -14.439736,4.38258 -1.45978,0.48663 c -0.129859,0.92874 -0.528292,1.97235 -1.194882,3.13379 -0.666568,1.16093 -1.53518,2.24951 -2.604212,3.26637 l 0.728297,2.19199 c 0.618165,-0.49454 1.281264,-1.14839 1.989308,-1.96235 0.716544,-0.8137 1.260557,-1.57286 1.633048,-2.27186 l 4.78906,14.43025 2.266942,-0.74881 z m -21.602885,13.99832 15.997228,12.12541 -0.109869,38.15823 -16.381867,11.70322 -9.82409,-30.6893 z m 80.913055,0.46735 c -1.957605,0.005 -4.319915,0.95872 -7.084305,2.86293 -2.6365,1.81504 -4.21881,3.59913 -4.74493,5.34376 -0.51904,1.74016 -0.28186,3.36325 0.7093,4.87124 0.58146,0.88375 1.32121,1.52541 2.2165,1.9199 0.89529,0.39719 1.88197,0.50943 2.96046,0.33932 1.09003,-0.17448 2.1134,-0.57957 3.07083,-1.23834 1.457025,-1.00362 2.364545,-2.24451 2.720815,-3.7267 0.36775,-1.48053 0.1523,-2.82296 -0.63987,-4.02938 -0.45364,-0.6892 -1.053085,-1.23582 -1.800325,-1.6353 -0.74698,-0.39983 -1.60882,-0.58396 -2.58214,-0.54451 1.53518,-1.0386 2.82381,-1.67518 3.865325,-1.91736 1.0416,-0.2499 1.9666,-0.22447 2.77129,0.0526 0.61941,0.19992 1.11874,0.59888 1.49748,1.17592 0.47137,0.71637 0.60045,1.50543 0.38772,2.36182 -0.13981,0.52435 -0.52429,1.12095 -1.15394,1.7876 l 1.32721,1.70017 c 1.08953,-0.96372 1.72667,-2.05222 1.91067,-3.26013 0.18725,-1.20082 -0.0974,-2.38174 -0.86083,-3.54047 -1.02213,-1.55541 -2.41774,-2.38928 -4.1869,-2.50335 -0.12733,-0.006 -0.25416,-0.0176 -0.38473,-0.0176 z m -26.719857,0.19991 22.183002,30.71754 -22.359563,30.58848 -36.001635,-11.81029 0.109868,-37.89035 z m 21.385362,5.42925 c 0.12233,0.006 0.24716,0.0176 0.369,0.0526 0.98517,0.14994 1.74515,0.63132 2.28267,1.45054 0.54177,0.82423 0.68558,1.71763 0.43192,2.67985 -0.24717,0.95873 -0.89704,1.80259 -1.95162,2.52861 -1.09627,0.7567 -2.14385,1.0785 -3.14333,0.96864 -0.99965,-0.1 -1.75188,-0.54891 -2.2542,-1.31069 -0.34279,-0.52435 -0.51806,-1.12603 -0.52654,-1.81259 -5.9e-4,-0.69181 0.20722,-1.37311 0.62116,-2.04722 0.41793,-0.66639 0.94997,-1.22335 1.59535,-1.66773 0.86208,-0.59449 1.71918,-0.86894 2.57585,-0.82597 z m -29.93255,11.05981 c -1.085037,0.0263 -2.095166,0.2499 -3.026661,0.66902 -1.859493,0.83387 -3.274633,2.44416 -4.246818,4.82993 l 3.187464,1.34076 c 0.50979,-1.63283 1.36666,-2.77402 2.57268,-3.4177 1.205872,-0.64448 2.579838,-0.72689 4.120685,-0.25954 1.457787,0.44454 2.503249,1.24088 3.13702,2.3918 0.649113,1.14349 0.780208,2.34929 0.394222,3.61938 -0.368003,1.21082 -1.256546,2.34683 -2.667214,3.40815 -1.407104,1.04861 -3.881589,2.30185 -7.421692,3.76441 -2.279912,0.93873 -4.079215,1.83003 -5.397565,2.67362 -1.306484,0.84615 -2.357066,1.7876 -3.152763,2.82823 -0.489091,0.62955 -0.839127,1.33321 -1.049839,2.11209 l 17.226797,5.24915 0.93648,-3.08005 -12.781364,-3.89374 c 0.532235,-0.47172 1.157442,-0.91128 1.875972,-1.31576 0.72207,-0.41474 2.286667,-1.13348 4.697628,-2.16209 2.891244,-1.24579 4.998381,-2.27686 6.321367,-3.09275 1.334705,-0.81106 2.368799,-1.65782 3.102342,-2.53482 0.733543,-0.87885 1.2588,-1.83758 1.576374,-2.88162 0.624382,-2.05231 0.420962,-3.9944 -0.614672,-5.82645 -1.035605,-1.83249 -2.805229,-3.12852 -5.306126,-3.89075 -1.238593,-0.37704 -2.398768,-0.55416 -3.483826,-0.53224 z m -42.184259,3.06461 c -1.310487,1.9e-4 -2.400516,0.0999 -3.26627,0.27707 -1.16318,0.2499 -2.151093,0.61203 -2.966775,1.09604 -0.824655,0.48401 -1.464267,1.11348 -1.916908,1.88747 -0.461645,0.77598 -0.715487,1.69016 -0.75977,2.74298 -0.0596,1.4281 0.27515,2.62873 1.002645,3.60666 0.727769,0.96873 1.78934,1.72517 3.187479,2.26697 1.389619,0.53135 3.245191,0.84876 5.564632,0.94618 3.684338,0.14993 6.368359,-0.37967 8.055383,-1.6053 1.401359,-1.02361 2.143109,-2.4817 2.222748,-4.37311 0.0596,-1.43554 -0.271638,-2.63768 -0.999401,-3.60666 -0.736274,-0.97862 -1.801073,-1.73262 -3.190588,-2.26442 -1.398615,-0.53223 -3.247327,-0.84876 -5.548912,-0.94627 -0.486115,-0.0175 -0.947223,-0.0263 -1.384129,-0.0263 z m 0.117316,2.47414 c 0.370287,0.004 0.759687,0.0176 1.163433,0.0263 3.211525,0.1245 5.336355,0.60676 6.37492,1.4081 1.039095,0.7944 1.53468,1.7426 1.488246,2.85013 -0.04732,1.10604 -0.618429,2.01733 -1.71194,2.73036 -1.102014,0.7041 -3.261679,0.98617 -6.482126,0.85141 -3.220453,-0.12452 -5.409922,-0.64185 -6.570409,-1.52297 -0.908773,-0.69884 -1.342435,-1.60285 -1.295748,-2.70809 0.04732,-1.12349 0.61895,-2.03723 1.711933,-2.74308 0.95697,-0.6243 2.729823,-0.92373 5.321921,-0.89876 z m 74.588573,9.84619 21.284445,0.35424 -10.29068,31.20313 -26.675715,19.2066 -6.82263,-19.97602 z m -83.990177,4.59055 -0.06227,1.55542 c 0.829915,0.4542 1.673245,1.20589 2.531685,2.25195 0.858589,1.04615 1.57662,2.2545 2.153348,3.62911 l 2.326851,0.1 c -0.244639,-0.76109 -0.624657,-1.61785 -1.138211,-2.57902 -0.513301,-0.96872 -1.035099,-1.75515 -1.56389,-2.35929 l 15.350936,0.6471 0.09987,-2.40926 z m 79.264157,10.03198 c -1.25405,0.12452 -2.39701,0.73654 -3.42392,1.83003 -0.9672,1.02861 -1.52919,2.18209 -1.69297,3.46479 -0.16977,1.28833 0.0924,2.62225 0.78195,4.00089 0.69656,1.38565 1.93239,2.9131 3.71713,4.59056 1.71494,1.61283 3.21119,2.64514 4.48325,3.09907 0.47711,0.17449 0.94872,0.29462 1.41559,0.36213 h 0.003 c 0.777685,0.12451 1.539165,0.0789 2.288905,-0.0999 1.19363,-0.28936 2.21725,-0.88886 3.07083,-1.79759 1.1819,-1.25835 1.73416,-2.71309 1.65826,-4.36338 -0.0824,-1.64274 -0.82838,-3.12677 -2.24472,-4.45798 -1.3719,-1.29077 -2.85168,-1.93235 -4.442275,-1.9199 -1.5906,0.0176 -2.93329,0.59624 -4.0198,1.75261 -0.65086,0.69181 -1.08354,1.49298 -1.30199,2.39926 -0.21721,0.91884 -0.21471,1.80759 0.01,2.6639 -0.15728,-0.1245 -0.27687,-0.24989 -0.35302,-0.31478 -0.71129,-0.66903 -1.3292,-1.40556 -1.85375,-2.22197 -0.52478,-0.81634 -0.87282,-1.54541 -1.04034,-2.18209 -0.16228,-0.62868 -0.17228,-1.25825 -0.0374,-1.88492 0.12982,-0.62167 0.43765,-1.19335 0.93323,-1.72016 0.57898,-0.6164 1.22909,-0.95872 1.94838,-1.02362 0.71952,-0.0789 1.53418,0.19993 2.4402,0.78915 l 1.39661,-1.79022 c -1.23009,-0.89375 -2.47565,-1.28324 -3.73603,-1.16338 z m -56.217286,4.9783 36.263311,11.89866 6.806845,19.93806 -32.788938,-0.14994 -26.968927,-19.77427 z m 61.636926,2.1071 c 1.060305,-0.006 2.033495,0.40685 2.922625,1.2409 0.99091,0.93119 1.52943,1.97479 1.62056,3.12449 0.0924,1.15093 -0.2197,2.10466 -0.93648,2.86592 -0.69257,0.73654 -1.57138,1.09349 -2.63887,1.07104 -0.13482,-0.004 -0.26763,-0.006 -0.40046,-0.0263 l 0.003,-0.003 c -0.928985,-0.12451 -1.831025,-0.5717 -2.692455,-1.38066 -0.98443,-0.92628 -1.51371,-1.90991 -1.58911,-2.95106 -0.0749,-1.02861 0.26264,-1.93735 1.00889,-2.73027 0.74024,-0.78652 1.64203,-1.19337 2.70195,-1.21336 z m -48.045273,6.09757 c -1.282773,0.0176 -2.444459,0.33669 -3.480679,0.96118 -1.507219,0.90883 -2.453192,2.20207 -2.840666,3.87803 -0.280144,1.21337 -0.189745,2.31685 0.271118,3.31355 0.45262,0.99617 1.265541,1.81003 2.43721,2.43671 -1.103517,0.17449 -1.97933,0.55153 -2.629425,1.12848 -0.661397,0.58396 -1.098265,1.32821 -1.308486,2.23943 -0.329515,1.42563 -0.0596,2.73412 0.803875,3.92819 0.863068,1.20336 2.193293,1.97489 3.988273,2.31194 1.785589,0.33407 3.325411,0.1245 4.625125,-0.65675 1.29975,-0.77161 2.116898,-1.87246 2.446704,-3.29784 0.217192,-0.94373 0.152306,-1.80258 -0.194738,-2.57577 -0.348279,-0.77161 -1.004646,-1.43802 -1.967344,-1.9998 1.324957,-0.0789 2.427975,-0.48663 3.310405,-1.22334 0.870872,-0.72865 1.455285,-1.73263 1.749891,-3.00771 0.39545,-1.71263 0.10487,-3.25829 -0.873321,-4.64097 -0.979684,-1.37311 -2.482899,-2.24942 -4.51164,-2.62944 -0.633862,-0.1245 -1.24232,-0.17449 -1.825537,-0.17449 z m 0.45709,2.04976 c 0.285842,0.005 0.581244,0.0526 0.882807,0.1 0.775908,0.14994 1.459774,0.45683 2.052474,0.92874 0.590723,0.48138 0.98467,1.0735 1.18216,1.78005 0.187201,0.70409 0.2022,1.40064 0.04471,2.08721 -0.259621,1.12348 -0.863848,1.98733 -1.812798,2.59147 -0.958465,0.6015 -2.031761,0.79353 -3.21898,0.56906 -1.215359,-0.22447 -2.136117,-0.79617 -2.764999,-1.70517 -0.638154,-0.90875 -0.825883,-1.94236 -0.558018,-3.10232 0.263663,-1.14092 0.875345,-2.00732 1.831779,-2.60102 0.717249,-0.44455 1.503729,-0.65937 2.361321,-0.64448 z m -2.10291,9.92808 c 0.229639,0.005 0.466382,0.0263 0.709266,0.0789 1.000397,0.1745 1.744899,0.63395 2.23524,1.34068 0.490326,0.70673 0.627105,1.52296 0.412897,2.44916 -0.189747,0.81896 -0.669105,1.46307 -1.440809,1.93245 -0.771695,0.4691 -1.638037,0.61465 -2.60104,0.43403 -0.953711,-0.17449 -1.679725,-0.63132 -2.175313,-1.35568 -0.507065,-0.719 -0.658144,-1.51795 -0.453846,-2.39926 0.194744,-0.84615 0.675332,-1.50797 1.437564,-1.97989 0.563278,-0.34721 1.18815,-0.5147 1.875966,-0.49715 z"
       id="path2306-6" />
  </g>
</svg>
