<?xml version="1.0" encoding="UTF-8" standalone="no"?>
<svg
   xmlns:dc="http://purl.org/dc/elements/1.1/"
   xmlns:cc="http://creativecommons.org/ns#"
   xmlns:rdf="http://www.w3.org/1999/02/22-rdf-syntax-ns#"
   xmlns:svg="http://www.w3.org/2000/svg"
   xmlns="http://www.w3.org/2000/svg"
   id="svg2334"
   version="1.1"
   viewBox="0 0 127 127"
   height="5in"
   width="5in">
  <defs
     id="defs2328" />
  <metadata
     id="metadata2331">
    <rdf:RDF>
      <cc:Work
         rdf:about="">
        <dc:format>image/svg+xml</dc:format>
        <dc:type
           rdf:resource="http://purl.org/dc/dcmitype/StillImage" />
        <dc:title></dc:title>
      </cc:Work>
    </rdf:RDF>
  </metadata>
  <g
     transform="translate(0,-169.99998)"
     id="layer1">
    <path
       style="color:#000000;font-style:normal;font-variant:normal;font-weight:normal;font-stretch:normal;font-size:medium;line-height:normal;font-family:sans-serif;font-variant-ligatures:normal;font-variant-position:normal;font-variant-caps:normal;font-variant-numeric:normal;font-variant-alternates:normal;font-feature-settings:normal;text-indent:0;text-align:start;text-decoration:none;text-decoration-line:none;text-decoration-style:solid;text-decoration-color:#000000;letter-spacing:normal;word-spacing:normal;text-transform:none;writing-mode:lr-tb;direction:ltr;text-orientation:mixed;dominant-baseline:auto;baseline-shift:baseline;text-anchor:start;white-space:normal;shape-padding:0;clip-rule:nonzero;display:inline;overflow:visible;visibility:visible;opacity:1;isolation:auto;mix-blend-mode:normal;color-interpolation:sRGB;color-interpolation-filters:linearRGB;solid-color:#000000;solid-opacity:1;vector-effect:none;fill:#000000;fill-opacity:0.99470903;fill-rule:nonzero;stroke:none;stroke-width:2.15053177;stroke-linecap:round;stroke-linejoin:bevel;stroke-miterlimit:4;stroke-dasharray:none;stroke-dashoffset:45.35433197;stroke-opacity:1;paint-order:stroke markers fill;color-rendering:auto;image-rendering:auto;shape-rendering:auto;text-rendering:auto;enable-background:accumulate"
       d="m 62.829664,173.51702 c -0.168682,4.2e-4 -0.301979,0.074 -0.417242,0.14071 l -0.02071,-0.0164 -53.3173242,30.03428 c 0,7e-4 -0.023419,0.003 -0.028127,0.006 l -0.023419,0.0247 c -0.1827262,0.11684 -0.3649917,0.3933 -0.5503043,0.93237 l -0.2178769,58.20161 c 0.2084992,0.66069 0.4652712,0.95813 0.7515594,1.05653 l 53.107269,29.35697 c 0.45308,0.1407 0.970132,0.43855 1.242594,0.16374 v -0.002 c 8.873027,-4.92264 22.148691,-12.28732 33.223555,-18.43137 5.551862,-3.07977 10.547302,-5.85148 14.147312,-7.84871 1.79995,-0.99795 3.24981,-1.80387 4.24837,-2.35794 0.49992,-0.27646 0.88509,-0.49203 1.1449,-0.63519 0.0584,-0.0246 0.0798,-0.0494 0.12654,-0.074 0.0683,6.9e-4 0.14991,-0.0164 0.2605,-0.1407 v -0.002 c 0.13354,-0.1407 0.30361,-0.42126 0.55315,-0.94175 l -0.21088,-58.46793 -0.0206,-0.006 c -0.002,-0.2345 -0.14052,-0.52001 -0.52666,-0.9277 L 63.431514,173.64653 c -0.23733,-0.0938 -0.435049,-0.1407 -0.600683,-0.1407 z m 1.165745,2.91718 47.921111,27.132 -47.897445,2.1483 z m -2.183436,0.0164 -0.479333,29.21471 -47.861953,-1.98192 z m -18.437087,11.99037 c -0.711724,0.62285 -1.660533,1.26273 -2.849013,1.92343 -1.182619,0.65163 -2.427511,1.20644 -3.736536,1.65865 l -1.109298,1.7127 c 0.689008,-0.18759 1.515526,-0.48955 2.476217,-0.88556 0.975523,-0.40317 1.80696,-0.80551 2.496945,-1.20415 l -7.325154,11.35461 1.801797,0.0247 9.404909,-14.57316 z m 9.171198,0.14069 c -1.061505,-0.0164 -2.130497,0.25506 -3.206969,0.81786 -1.070629,0.55044 -2.121815,1.34706 -3.153713,2.39332 -1.025884,1.03546 -2.091358,2.41207 -3.198079,4.12699 -1.761038,2.72902 -2.546708,4.70585 -2.357905,5.92875 0.152286,1.01679 0.933824,1.53687 2.349026,1.56034 1.070638,0.0164 2.139865,-0.25507 3.206958,-0.81786 1.076499,-0.56032 2.127685,-1.35653 3.153713,-2.3934 1.031988,-1.04485 2.100276,-2.42145 3.201064,-4.12725 0.92819,-1.43839 1.554647,-2.58281 1.878645,-3.43463 0.333377,-0.85045 0.492446,-1.57432 0.482136,-2.17174 -6.96e-4,-0.59488 -0.196796,-1.05663 -0.591784,-1.3776 -0.384443,-0.32335 -0.97176,-0.49202 -1.763146,-0.50354 z m 29.031335,0.074 c -1.358093,0.0247 -2.240136,0.39576 -2.644845,1.11051 -0.409981,0.70514 -0.290973,1.72892 0.357965,3.06504 l 1.893413,0.14069 c -0.499943,-0.88556 -0.637933,-1.5837 -0.414196,-2.08501 0.22022,-0.51341 0.749679,-0.77506 1.59166,-0.78988 0.797002,-0.0164 1.575735,0.21064 2.337125,0.67469 0.765142,0.45665 1.346148,1.02849 1.742537,1.71962 0.3753,0.65329 0.503215,1.35175 0.38163,2.09678 -0.12182,0.74463 -0.600448,1.75936 -1.428838,3.04415 -0.534622,0.82459 -0.891656,1.55086 -1.070873,2.18112 -0.171025,0.62779 -0.196798,1.25804 -0.07967,1.89059 0.08663,0.38918 0.249735,0.79152 0.491034,1.21353 l 9.425644,-0.1876 -0.958656,-1.66573 -6.98787,0.14069 c 0.01927,-0.31594 0.09137,-0.63024 0.215535,-0.94176 0.119479,-0.3184 0.450747,-0.93007 0.997072,-1.82731 0.655729,-1.073 1.076724,-1.91643 1.26625,-2.52645 0.194455,-0.61873 0.253019,-1.20414 0.175709,-1.75475 -0.07967,-0.55045 -0.279968,-1.11035 -0.603495,-1.67494 -0.632533,-1.10114 -1.56378,-2.01945 -2.792764,-2.75741 -1.228541,-0.73803 -2.526019,-1.09175 -3.893336,-1.066 z m -7.709722,0.1407 -1.127095,0.0164 c 0.05155,0.61628 -0.103081,1.25804 -0.461527,1.92574 -0.363128,0.65823 -0.902427,1.22528 -1.618365,1.70086 l 0.958422,1.66563 c 0.430364,-0.21063 0.869626,-0.5134 1.322472,-0.92069 0.456843,-0.41714 0.78038,-0.82936 0.970377,-1.22989 l 6.33405,11.03502 1.751434,-0.0493 z m -22.289032,1.25656 c 0.837767,0.0164 1.281253,0.41715 1.334192,1.20883 0.06331,0.79152 -0.674946,2.38098 -2.215766,4.76919 -1.534959,2.37858 -2.843179,3.9613 -3.922906,4.74517 -1.070403,0.78246 -2.020388,1.16909 -2.848986,1.15732 -0.828634,-0.0164 -1.274923,-0.41715 -1.33724,-1.21114 -0.04685,-0.80139 0.70165,-2.39594 2.24247,-4.7839 1.534978,-2.37861 2.899501,-4.00607 4.094519,-4.88159 0.939666,-0.68209 1.825228,-1.01672 2.653744,-1.00504 z m 62.494445,15.67084 -23.383645,52.21402 -26.149784,-49.86184 36.566519,-1.76882 z m -102.791574,0.11684 9.774729,0.40728 39.427367,1.81563 -25.907212,49.56597 z m 51.234547,3.02662 26.268141,49.96542 -52.338057,0.0494 z m 52.216777,0.64176 0.18973,52.28166 -3.68919,-0.38425 -18.869041,-1.94917 z m -104.114017,0.0938 2.979154,6.62087 19.221111,43.04556 -22.398491,2.37276 z m 20.079045,4.32522 c -1.324588,0.0938 -2.460075,0.81044 -3.402228,2.17405 -0.935462,1.35175 -1.314515,2.79138 -1.136003,4.31624 0.178052,1.52512 0.813632,2.81557 1.902312,3.86981 0.719456,0.69772 1.465851,1.10344 2.236619,1.22051 0.776392,0.11685 1.579017,-0.0938 2.408186,-0.60474 -0.417948,1.1761 -0.478158,2.33811 -0.180403,3.48228 0.298009,1.14564 0.930542,2.1858 1.89646,3.12123 1.306547,1.26512 2.719904,1.85316 4.239482,1.75706 1.526295,-0.0938 2.816873,-0.92548 3.875556,-2.45569 1.065239,-1.54157 1.490919,-3.19462 1.277971,-4.96716 -0.222561,-1.78279 -0.970367,-3.29179 -2.248339,-4.52943 -0.918351,-0.88794 -1.885436,-1.40333 -2.896309,-1.54156 -1.013711,-0.16374 -1.99673,0.0938 -2.952565,0.77506 0.257006,-1.05423 0.260515,-2.01944 0.0093,-2.89044 -0.251617,-0.86919 -0.722974,-1.63759 -1.414089,-2.30759 -1.079302,-1.04255 -2.284167,-1.51812 -3.615231,-1.42209 z m 62.334698,1.85776 c -0.897987,0.0938 -1.854519,0.57843 -2.87268,1.47592 l 0.89352,2.24909 c 0.860963,-0.87619 1.679288,-1.26511 2.455526,-1.17141 0.784585,0.0938 1.428612,0.61874 1.929016,1.5907 0.472532,0.92308 0.623173,1.89996 0.455667,2.94087 -0.152278,1.04255 -0.559446,1.90937 -1.224789,2.59746 -0.630905,0.65329 -1.462804,1.03308 -2.493987,1.13856 -1.031047,0.0938 -2.610391,-0.11683 -4.739422,-0.65164 -1.369099,-0.3464 -2.50965,-0.52247 -3.422946,-0.52493 -0.908043,0.0164 -1.737844,0.18758 -2.488064,0.52904 -0.452385,0.23449 -0.881112,0.55292 -1.28687,0.9722 l 5.594455,10.90478 1.606418,-1.66572 -4.150713,-8.08855 c 0.42076,-0.0938 0.865883,-0.11684 1.33724,-0.074 0.479794,0.0494 1.455552,0.21063 2.925934,0.55784 1.758226,0.40729 3.085897,0.62286 3.982076,0.64178 0.910158,0.0164 1.69685,-0.0938 2.363783,-0.37929 0.667684,-0.27153 1.275855,-0.69362 1.819377,-1.25805 1.06173,-1.10146 1.717469,-2.48679 1.970243,-4.16017 0.253018,-1.67272 -0.02577,-3.30258 -0.837289,-4.88439 -0.806143,-1.57201 -1.78541,-2.47254 -2.937763,-2.70678 -0.286043,-0.0494 -0.579358,-0.074 -0.878759,-0.0494 z m -62.263708,0.60886 c 0.788798,-0.0494 1.519966,0.26 2.192334,0.91133 0.643792,0.62283 1.024952,1.38688 1.142088,2.29359 0.107767,0.89486 -0.09136,1.70786 -0.597636,2.43784 -0.525706,0.76106 -1.176759,1.16431 -1.949633,1.20652 -0.772639,0.0494 -1.511774,-0.27892 -2.221852,-0.96759 h -0.0027 c -0.61404,-0.59735 -0.975523,-1.35176 -1.085867,-2.26537 -0.119478,-0.92309 0.07027,-1.75246 0.577017,-2.48243 0.498532,-0.71665 1.14841,-1.09407 1.946586,-1.13389 z m 6.65358,5.70388 c 0.991447,-0.074 1.927143,0.33076 2.80755,1.18309 0.872205,0.84344 1.385739,1.83669 1.544337,2.97931 0.149936,1.13388 -0.09138,2.15527 -0.718985,3.06504 -0.409755,0.59239 -0.924221,1.01432 -1.544347,1.27209 -0.622703,0.23696 -1.26532,0.25342 -1.925977,0.0494 -0.670017,-0.21063 -1.263203,-0.58089 -1.78399,-1.08706 h -0.0027 c -0.851352,-0.82468 -1.361376,-1.80157 -1.526532,-2.9348 -0.159304,-1.14326 0.07497,-2.16235 0.69532,-3.06191 0.635129,-0.91609 1.454846,-1.40333 2.455536,-1.45953 z m -19.079088,9.334 c -0.381404,0.002 -0.786701,0.16374 -1.213078,0.52001 -0.572097,0.45171 -1.103429,1.13149 -1.591659,2.03112 -0.739849,1.36582 -1.180279,2.82183 -1.325529,4.36694 -0.147594,1.53679 0.0063,2.78734 0.464565,3.75114 0.263328,0.55293 0.601153,0.91841 1.01184,1.10115 0.405992,0.18759 0.867519,0.14069 1.384563,-0.16374 -0.785987,1.42433 -1.450163,2.39241 -1.99391,2.90501 -0.543513,0.51341 -1.037604,0.74708 -1.476405,0.70019 -0.331721,-0.0494 -0.605358,-0.28139 -0.825343,-0.74544 -0.269892,-0.5669 -0.363598,-1.29795 -0.281133,-2.1952 0.06322,-0.55043 0.246923,-1.22998 0.556163,-2.0405 l -0.760214,-1.30723 c -0.544226,1.22988 -0.849008,2.45353 -0.908286,3.67126 -0.06322,1.22759 0.124171,2.30528 0.565081,3.23066 0.590129,1.23928 1.355515,1.67972 2.295652,1.31893 1.087268,-0.42127 2.382268,-2.01706 3.881507,-4.78664 1.341464,-2.47773 2.124176,-4.6377 2.351956,-6.47606 0.220219,-1.83909 0.03979,-3.35975 -0.535546,-4.56793 -0.334552,-0.70266 -0.742887,-1.12681 -1.227836,-1.26973 -0.12182,-0.0494 -0.245522,-0.0494 -0.372731,-0.0494 z m 87.5585,0.35134 -0.66863,1.50635 7.81035,14.20646 0.43482,-0.96761 c -0.22022,-0.86679 -0.37274,-1.94448 -0.45263,-3.23066 -0.0749,-1.27679 -0.0515,-2.56577 0.0703,-3.86364 l -0.91717,-1.67041 c -0.10074,0.66317 -0.17335,1.48529 -0.21553,2.46433 -0.0421,0.99565 -0.0351,1.87183 0.0234,2.62411 z m -87.585141,1.7336 c 0.353986,0.0164 0.640039,0.25754 0.857916,0.71912 0.196797,0.40974 0.308073,0.95583 0.33126,1.62821 0.02342,0.67221 -0.06556,1.39396 -0.263328,2.16465 -0.201472,0.76356 -0.464331,1.45016 -0.789965,2.04999 h 0.0027 c -0.502981,0.93007 -1.01581,1.45015 -1.538478,1.56023 -0.528754,0.11685 -0.949044,-0.14069 -1.257352,-0.79892 -0.312985,-0.65822 -0.415371,-1.48998 -0.310651,-2.49691 0.100738,-0.99804 0.418183,-1.99129 0.955609,-2.98513 0.556399,-1.03079 1.100852,-1.62583 1.635936,-1.7875 0.13354,-0.0494 0.257703,-0.0494 0.37578,-0.0494 z m 37.323881,2.81368 c -1.613916,-0.0164 -2.901699,0.40316 -3.863719,1.23698 -0.962175,0.82196 -1.519741,2.03581 -1.668509,3.63892 l 2.130027,0.21064 c 0.01646,-1.06591 0.32634,-1.89059 0.931942,-2.47905 0.605838,-0.60228 1.410572,-0.89734 2.411153,-0.89025 0.946946,0.005 1.709267,0.29291 2.286989,0.8668 0.589443,0.56196 0.881347,1.26042 0.875722,2.0897 -0.0045,0.78495 -0.33173,1.61654 -0.982314,2.49412 -0.650339,0.87848 -1.900204,2.06626 -3.748346,3.56192 -1.188471,0.96282 -2.103088,1.81563 -2.742485,2.55309 -0.628093,0.73804 -1.089845,1.48299 -1.384563,2.23264 -0.16634,0.46158 -0.247628,0.94653 -0.248569,1.45255 l 11.200737,0.0659 0.0093,-2.00306 -8.307332,-0.0493 c 0.238486,-0.37518 0.537427,-0.74462 0.893529,-1.10812 0.357258,-0.3752 1.160355,-1.08468 2.414072,-2.13192 1.502875,-1.25096 2.574263,-2.23492 3.212919,-2.95273 0.649644,-0.72817 1.115854,-1.41972 1.399322,-2.07334 0.283232,-0.65329 0.428257,-1.3213 0.432,-2.00075 0.0072,-1.32362 -0.460342,-2.44023 -1.402359,-3.34891 -0.941809,-0.91107 -2.224229,-1.36788 -3.848998,-1.37488 z m 13.052732,0.074 c -1.226424,-0.006 -2.249505,0.32336 -3.070868,0.98627 -0.821609,0.65165 -1.439627,1.58839 -1.854989,2.81344 -0.415831,1.21353 -0.631375,2.82108 -0.641911,4.82226 -0.01709,3.18474 0.527823,5.48624 1.638984,6.90218 0.919056,1.1784 2.198664,1.77112 3.834157,1.7782 1.237204,0.006 2.260285,-0.31842 3.070877,-0.98166 0.821138,-0.66317 1.439147,-1.60008 1.854989,-2.8136 0.416301,-1.22529 0.628789,-2.83195 0.639098,-4.82235 0.0093,-1.6774 -0.110109,-3.01435 -0.363833,-4.00563 -0.241064,-0.99098 -0.587083,-1.83203 -1.035497,-2.52358 -0.437147,-0.69114 -0.999641,-1.2229 -1.686297,-1.59067 -0.675887,-0.3678 -1.469849,-0.5554 -2.384529,-0.56197 z m 35.584328,1.36583 c -0.78928,-0.0659 -1.45204,0.48297 -1.98806,1.68909 -0.54118,1.21353 -0.75295,2.59713 -0.63301,4.15366 0.12417,1.56733 0.5215,2.95636 1.18918,4.16873 0.48002,0.86911 0.98067,1.42202 1.50287,1.65627 0.5243,0.24848 1.03081,0.1407 1.52068,-0.33982 -0.1265,0.88327 -0.12417,1.71493 0.0121,2.49691 0.13588,0.78 0.38539,1.49706 0.74546,2.15298 0.56343,1.0238 1.18871,1.56963 1.87561,1.63529 0.68196,0.0659 1.26226,-0.4262 1.74253,-1.49937 0.47557,-1.066 0.663,-2.26775 0.56201,-3.60643 -0.10073,-1.33768 -0.43785,-2.52453 -1.00596,-3.55886 -0.37555,-0.6821 -0.7607,-1.11752 -1.15965,-1.30724 -0.40225,-0.1876 -0.81668,-0.0938 -1.2426,0.25751 l -0.003,-0.002 c 0.21085,-0.97229 0.23755,-1.97024 0.0773,-2.99403 -0.16171,-1.02347 -0.49367,-1.99336 -0.99712,-2.91101 -0.68175,-1.24167 -1.41362,-1.90466 -2.19821,-1.99139 z m -35.610942,0.36119 c 0.968261,0.005 1.773455,0.46652 2.414082,1.3845 0.651515,0.91841 0.971308,2.76942 0.955609,5.55586 -0.01573,2.77617 -0.356336,4.62554 -1.01769,5.54713 -0.650575,0.9231 -1.45368,1.3822 -2.411152,1.37522 -0.957716,-0.005 -1.76292,-0.46652 -2.414109,-1.38459 -0.641214,-0.9277 -0.953728,-2.78693 -0.937804,-5.57363 0.01573,-2.77567 0.386089,-4.67777 1.112337,-5.70692 0.574675,-0.80633 1.341227,-1.20653 2.2987,-1.19715 z m -45.776201,1.30955 -7.798519,14.40179 0.440909,0.93246 c 0.45262,-0.37273 1.002697,-0.59075 1.650703,-0.65165 0.643068,-0.0494 1.284762,0.0938 1.920108,0.43774 l 0.917185,-1.6915 c -0.322127,-0.24848 -0.726717,-0.4517 -1.21003,-0.61133 -0.491974,-0.16372 -0.927023,-0.21063 -1.307713,-0.14069 l 6.073706,-11.21868 z m 81.452243,0.48216 c 0.16634,0.0246 0.33198,0.11684 0.50299,0.24107 0.34696,0.26494 0.65667,0.64178 0.9289,1.13627 h -0.003 c 0.4449,0.80797 0.71314,1.71254 0.80473,2.71009 0.0867,1.00503 -0.0258,1.86245 -0.34015,2.57088 -0.3226,0.72404 -0.74359,1.05191 -1.2604,0.98396 -0.51119,-0.0493 -0.99543,-0.50354 -1.45556,-1.33768 -0.45449,-0.82699 -0.72812,-1.74299 -0.81644,-2.74852 -0.082,-0.99565 0.0375,-1.85308 0.35493,-2.5707 0.21084,-0.46652 0.4737,-0.77342 0.79278,-0.9254 0.15931,-0.074 0.3254,-0.0938 0.49104,-0.0494 z m 3.65961,7.30749 c 0.39921,0.0494 0.78364,0.40974 1.15379,1.08466 0.3212,0.58337 0.51472,1.27682 0.57679,2.08041 0.0679,0.81539 -0.0258,1.50875 -0.28394,2.08273 -0.25326,0.56936 -0.5878,0.82195 -0.99988,0.76354 -0.40765,-0.0494 -0.7853,-0.3933 -1.136,-1.03318 -0.33596,-0.61132 -0.5379,-1.31431 -0.60349,-2.10846 -0.0633,-0.78988 0.0351,-1.47122 0.29284,-2.04519 0.26708,-0.59735 0.60091,-0.87151 0.99989,-0.82469 z M 88.488377,261.24618 62.811921,290.78046 37.020092,261.32303 Z m 2.825329,0.25754 21.179594,2.18811 c -0.85228,0.47309 -1.60946,0.89493 -2.79278,1.55095 -3.59989,1.99829 -8.59568,4.76886 -14.147333,7.84887 -9.217634,5.11379 -19.199153,10.65244 -27.652723,15.34239 z m -57.121891,0.074 23.348158,26.6705 -44.628334,-24.67047 z m 34.155382,1.88361 -1.902302,0.0247 0.192104,15.54643 1.22478,-0.0164 c 0.316039,-0.67222 0.866353,-1.37281 1.65375,-2.09909 0.787397,-0.71664 1.710677,-1.33537 2.766151,-1.84847 l -0.02342,-1.82732 c -0.587083,0.23449 -1.247278,0.55784 -1.979151,1.00034 -0.741477,0.45171 -1.334193,0.89733 -1.780952,1.33538 z m -10.348681,0.1876 -1.902311,0.0246 0.04684,3.70106 -2.094641,0.0246 0.02071,1.74068 2.094641,-0.0246 0.124171,10.04407 1.54715,-0.0247 6.94053,-10.1298 -0.02342,-1.74068 -6.709793,0.0938 z m 4.919934,5.37872 -4.766083,7.04977 -0.08673,-6.98775 z m -31.622953,0.18758 c -0.470661,-7e-4 -0.885091,0.0493 -1.242594,0.16374 -0.724601,0.21062 -1.136463,0.59486 -1.233687,1.17131 -0.131198,0.77342 0.334778,1.52751 1.393471,2.26315 1.22666,0.84805 3.276962,1.62821 6.153593,2.33803 2.573857,0.63272 4.462956,0.85273 5.668392,0.66069 1.196672,-0.21063 1.860839,-0.67468 1.988048,-1.42909 0.07496,-0.43772 -0.07496,-0.88318 -0.443711,-1.33068 -0.366873,-0.45419 -0.935461,-0.8762 -1.706925,-1.26973 -0.770532,-0.39822 -1.622127,-0.71254 -2.559053,-0.94416 -1.419469,-0.34885 -2.615228,-0.42372 -3.585668,-0.21063 -0.969899,0.1876 -1.505218,0.59736 -1.60642,1.19946 -0.0586,0.34475 0.0539,0.71254 0.33126,1.10583 0.269415,0.39164 0.720162,0.77753 1.355047,1.16202 -1.493732,-0.37684 -2.628559,-0.74709 -3.405177,-1.10814 -0.776627,-0.3612 -1.355516,-0.73556 -1.733638,-1.12449 -0.286054,-0.29291 -0.403886,-0.58335 -0.354927,-0.87388 0.06086,-0.35379 0.372733,-0.5883 0.934991,-0.7076 0.355397,-0.0493 0.895165,-0.0493 1.618365,0.0494 l 0.0093,-0.93477 v -0.002 c -0.583583,-0.0938 -1.109289,-0.16373 -1.579714,-0.16373 z m 58.657331,0.074 -1.635945,0.1407 -2.278081,2.68055 -3.476193,0.274 -0.647997,0.75694 3.476193,-0.27398 -0.70704,0.83636 1.633123,-0.14069 0.710087,-0.83636 9.434526,-0.74462 0.526646,-0.61873 z m -0.633239,0.74298 4.919906,1.41734 -6.564821,0.52 z m -51.447604,1.50364 c 0.416076,0.0493 0.883689,0.11683 1.399321,0.23861 1.069227,0.26247 1.892002,0.60722 2.470312,1.03547 0.578898,0.42373 0.836602,0.82937 0.772169,1.20884 -0.04458,0.25506 -0.23685,0.46652 -0.57983,0.62778 -0.342744,0.16374 -0.814101,0.23696 -1.414089,0.23449 -0.598802,-0.0164 -1.21096,-0.0938 -1.834134,-0.246 h -0.0027 c -0.963575,-0.23861 -1.716066,-0.56937 -2.254424,-0.99796 -0.548431,-0.43114 -0.787162,-0.85043 -0.718986,-1.25335 0.07027,-0.40974 0.423093,-0.67715 1.065014,-0.79892 0.316266,-0.074 0.681736,-0.074 1.097569,-0.0494 z"
       id="path2388-4" />
  </g>
</svg>
