<?xml version="1.0" encoding="UTF-8" standalone="no"?>
<svg
   xmlns:dc="http://purl.org/dc/elements/1.1/"
   xmlns:cc="http://creativecommons.org/ns#"
   xmlns:rdf="http://www.w3.org/1999/02/22-rdf-syntax-ns#"
   xmlns:svg="http://www.w3.org/2000/svg"
   xmlns="http://www.w3.org/2000/svg"
   xmlns:sodipodi="http://sodipodi.sourceforge.net/DTD/sodipodi-0.dtd"
   xmlns:inkscape="http://www.inkscape.org/namespaces/inkscape"
   inkscape:version="1.0 (4035a4fb49, 2020-05-01)"
   sodipodi:docname="Dice D4 Numbered SVG.svg"
   width="2in"
   height="2in"
   viewBox="0 0 50.800001 50.800001"
   version="1.1"
   id="svg3848">
  <sodipodi:namedview
     inkscape:current-layer="svg3848"
     inkscape:window-maximized="1"
     inkscape:window-y="-9"
     inkscape:window-x="-9"
     inkscape:cy="95.531707"
     inkscape:cx="96"
     inkscape:zoom="4.2708333"
     showgrid="false"
     id="namedview4985"
     inkscape:window-height="1261"
     inkscape:window-width="2400"
     inkscape:pageshadow="2"
     inkscape:pageopacity="0"
     guidetolerance="10"
     gridtolerance="10"
     objecttolerance="10"
     borderopacity="1"
     bordercolor="#666666"
     pagecolor="#ffffff" />
  <defs
     id="defs3842" />
  <metadata
     id="metadata3845">
    <rdf:RDF>
      <cc:Work
         rdf:about="">
        <dc:format>image/svg+xml</dc:format>
        <dc:type
           rdf:resource="http://purl.org/dc/dcmitype/StillImage" />
        <dc:title />
      </cc:Work>
    </rdf:RDF>
  </metadata>
  <g
     id="layer1"
     transform="translate(0,-246.19998)">
    <path
       style="color:#000000;font-style:normal;font-variant:normal;font-weight:normal;font-stretch:normal;font-size:medium;line-height:normal;font-family:sans-serif;font-variant-ligatures:normal;font-variant-position:normal;font-variant-caps:normal;font-variant-numeric:normal;font-variant-alternates:normal;font-feature-settings:normal;text-indent:0;text-align:start;text-decoration:none;text-decoration-line:none;text-decoration-style:solid;text-decoration-color:#000000;letter-spacing:normal;word-spacing:normal;text-transform:none;writing-mode:lr-tb;direction:ltr;text-orientation:mixed;dominant-baseline:auto;baseline-shift:baseline;text-anchor:start;white-space:normal;shape-padding:0;clip-rule:nonzero;display:inline;overflow:visible;visibility:visible;opacity:1;isolation:auto;mix-blend-mode:normal;color-interpolation:sRGB;color-interpolation-filters:linearRGB;solid-color:#000000;solid-opacity:1;vector-effect:none;fill:#000000;fill-opacity:1;fill-rule:nonzero;stroke:none;stroke-width:0.28620556;stroke-linecap:butt;stroke-linejoin:miter;stroke-miterlimit:4;stroke-dasharray:none;stroke-dashoffset:105.8267746;stroke-opacity:1;color-rendering:auto;image-rendering:auto;shape-rendering:auto;text-rendering:auto;enable-background:accumulate"
       d="m 24.921085,251.70942 c -0.07176,-0.003 -0.141545,0.0268 -0.18936,0.0818 L 2.3334695,279.85374 c -0.1075158,0.12427 -0.059937,0.31746 0.092996,0.37755 l 29.5750348,12.34364 0.191276,0.0753 c 0.09956,0.0391 0.212963,0.007 0.277341,-0.0784 l 0.148721,-0.1971 14.69212,-19.49217 c 0.07319,-0.0971 0.06146,-0.2338 -0.02718,-0.31704 l -21.985237,-20.5749 -0.220966,-0.21438 c -0.03453,-0.0333 -0.07834,-0.0555 -0.125641,-0.0636 -0.01021,-0.002 -0.02051,-0.003 -0.03081,-0.003 z m 0.310863,1.26344 21.186289,19.82728 -13.986691,18.55648 c -2.39979,-12.79472 -4.799673,-25.58914 -7.199598,-38.38376 z m -0.754839,0.27436 c 2.39979,12.79393 4.799546,25.58777 7.199201,38.38183 L 3.3959474,279.79181 Z m 3.420506,4.12621 -0.415087,0.33381 1.488135,5.91154 0.586643,0.76282 1.796288,-1.44414 1.24782,1.6228 0.508488,-0.40877 -1.247963,-1.6228 0.559156,-0.44965 -0.586635,-0.76284 -0.559164,0.44953 z m -4.46247,1.14167 -4.703038,3.94226 -0.147564,0.92124 3.663775,1.29491 -0.313692,1.95971 1.036807,0.36645 0.313827,-1.95971 1.140641,0.40309 0.147429,-0.92123 -1.140641,-0.40309 0.849261,-5.30425 z m 4.981646,0.60327 2.350168,3.05612 -1.29647,1.04235 z m -5.430003,0.94317 -0.590897,3.69073 -2.644132,-0.93452 z m 19.212502,10.61713 c 0.172822,0.25407 0.394396,0.54497 0.66468,0.87274 0.271474,0.33062 0.51834,0.60258 0.740783,0.81585 l -4.015793,-0.75509 0.322868,0.77288 5.153843,0.96896 -0.208185,-0.49802 c -0.277958,-0.17624 -0.602337,-0.44831 -0.973222,-0.8161 -0.370869,-0.36777 -0.729446,-0.78329 -1.075757,-1.24667 z m -28.53345,3.16975 -0.890526,0.37588 1.562297,3.70118 c -0.211613,-0.032 -0.433196,-0.0921 -0.664554,-0.18045 -0.234785,-0.0869 -0.702778,-0.30986 -1.404154,-0.66881 -0.843834,-0.42822 -1.487223,-0.7167 -1.93005,-0.86537 -0.4442625,-0.15204 -0.838321,-0.22821 -1.1821756,-0.2287 -0.3438462,-6.1e-4 -0.6666974,0.0631 -0.9687057,0.19051 -0.5937004,0.2506 -1.0022874,0.67171 -1.2256426,1.26331 -0.2233468,0.59158 -0.1821927,1.2494 0.1234456,1.97352 0.3027342,0.71723 0.7309063,1.20976 1.2845838,1.47743 0.5502586,0.26911 1.1943487,0.28624 1.9322535,0.0516 l -0.3041526,-0.9936 c -0.475033,0.19648 -0.9028928,0.21739 -1.2835709,0.0627 -0.3806528,-0.15469 -0.6650681,-0.4551 -0.8533811,-0.90124 -0.1781743,-0.42212 -0.1953367,-0.81715 -0.051496,-1.18514 0.1389871,-0.37 0.392024,-0.63248 0.7592289,-0.78748 0.3500425,-0.14774 0.7832206,-0.16078 1.2995513,-0.0391 0.5129034,0.12314 1.2788264,0.45278 2.2976684,0.98908 0.655478,0.34599 1.207332,0.59017 1.655563,0.73253 0.446778,0.13891 0.866871,0.20023 1.260211,0.18379 0.239243,-0.008 0.468897,-0.0625 0.689051,-0.16355 z m 22.460826,5.87838 c -0.569869,0.003 -1.127531,0.24256 -1.673104,0.71679 -0.546865,0.47776 -0.945052,1.05731 -1.194433,1.73849 -0.184438,0.50381 -0.241835,0.92186 -0.172189,1.25416 0.06838,0.33583 0.256202,0.55577 0.563419,0.66003 -0.326059,0.16489 -0.607629,0.38618 -0.844753,0.66378 -0.237124,0.27759 -0.417451,0.58495 -0.540846,0.922 -0.129887,0.3548 -0.180665,0.68958 -0.152452,1.00442 0.02549,0.31489 0.139603,0.56193 0.342327,0.74118 0.201423,0.18279 0.461855,0.27314 0.781414,0.27112 0.463341,-0.003 0.915758,-0.18266 1.357209,-0.53942 0.440151,-0.3532 0.821792,-0.85122 1.14477,-1.49394 l -0.656686,-0.16575 c -0.224706,0.46866 -0.473167,0.82069 -0.745291,1.05603 -0.272133,0.23534 -0.547971,0.35385 -0.827583,0.35562 -0.282271,0.002 -0.470457,-0.11208 -0.564458,-0.34156 -0.09398,-0.22949 -0.07657,-0.51982 0.052,-0.87106 0.162355,-0.44349 0.404949,-0.77247 0.727884,-0.98689 0.322919,-0.21442 0.637565,-0.32261 0.943811,-0.32453 0.02929,-1.5e-4 0.06652,0.003 0.111821,0.01 l 0.387736,-0.84139 c -0.228353,0.0723 -0.410445,0.1088 -0.546266,0.10964 -0.332872,0.002 -0.554437,-0.1399 -0.664925,-0.42592 -0.111795,-0.28246 -0.08728,-0.64369 0.07378,-1.08363 0.168862,-0.46123 0.427614,-0.84862 0.776256,-1.16231 0.345973,-0.31369 0.688156,-0.47164 1.026355,-0.47378 0.284947,-0.002 0.483745,0.11556 0.596436,0.35201 0.108739,0.24002 0.104957,0.63123 -0.01123,1.17353 l 0.765796,-0.13234 v 0 c 0.189656,-0.64896 0.19012,-1.17629 8.45e-4,-1.58217 -0.191488,-0.40585 -0.544274,-0.60728 -1.058215,-0.60405 z m -11.345792,0.11802 c -0.308298,-0.003 -0.615169,0.0569 -0.920841,0.17904 -0.677891,0.27079 -1.113543,0.736 -1.306786,1.39578 -0.19136,0.66341 -0.106342,1.34347 0.254878,2.0402 0.267168,0.5153 0.603121,0.89799 1.008053,1.148 0.406806,0.25363 0.84434,0.35268 1.312577,0.29706 -0.23021,0.29346 -0.352676,0.61389 -0.367483,0.96148 -0.01477,0.34758 0.06711,0.69374 0.245852,1.03848 0.188145,0.36288 0.451421,0.67162 0.789924,0.92627 0.335328,0.2559 0.710941,0.4125 1.12683,0.46976 0.417772,0.0609 0.816761,0.0154 1.196882,-0.13646 0.551187,-0.22017 0.918054,-0.58573 1.100525,-1.09665 0.184362,-0.50731 0.158488,-1.11024 -0.0775,-1.80881 l -0.945609,0.16755 c 0.184995,0.50431 0.22875,0.92041 0.13117,1.24848 -0.09755,0.32808 -0.312586,0.55863 -0.645188,0.69151 -0.335775,0.13412 -0.670935,0.12555 -1.005461,-0.0255 -0.334526,-0.15111 -0.595018,-0.40617 -0.781288,-0.76543 -0.235165,-0.45359 -0.26342,-0.84751 -0.08487,-1.18165 0.178529,-0.33414 0.449893,-0.57398 0.814169,-0.7195 0.03486,-0.0139 0.08265,-0.0286 0.143436,-0.0441 l -0.350853,-0.89802 c -0.20312,0.16875 -0.385355,0.28541 -0.546907,0.34994 -0.39595,0.15817 -0.798475,0.14152 -1.207451,-0.0499 -0.407101,-0.18781 -0.727285,-0.50674 -0.960576,-0.95672 -0.244586,-0.47174 -0.31029,-0.92291 -0.197092,-1.35359 0.110023,-0.42942 0.366208,-0.72455 0.768506,-0.88524 0.338941,-0.1354 0.690208,-0.12889 1.053834,0.0193 0.36235,0.15312 0.736528,0.48767 1.122584,1.00365 l 0.787593,-0.47235 c -0.40131,-0.64129 -0.911385,-1.09028 -1.530056,-1.3469 -0.310906,-0.12766 -0.620538,-0.19288 -0.928844,-0.19567 z"
       id="path3656" />
  </g>
  <path
     transform="scale(0.26458334)"
     id="path5548"
     d="m 122.57561,170.14533 c 0,-0.095 -6.0597,-32.47978 -13.46599,-71.966203 -7.4063,-39.486415 -13.427446,-71.832033 -13.380331,-71.879147 0.06549,-0.0655 75.914591,70.752398 78.877191,73.645121 l 0.63574,0.620749 -26.1183,34.65366 c -14.36507,19.05951 -26.21506,34.75376 -26.33331,34.8761 -0.11825,0.12234 -0.215,0.14472 -0.215,0.0497 z m 6.43515,-14.07279 c 1.64209,-0.80557 4.08836,-3.18984 5.20226,-5.07041 1.19614,-2.0194 1.20356,-1.96644 -0.32342,-2.30816 -1.22647,-0.27447 -1.37169,-0.26478 -1.59039,0.10614 -1.22203,2.07256 -2.12676,3.25209 -2.95419,3.85148 -1.81586,1.3154 -3.55002,1.42186 -4.46001,0.27381 -0.92817,-1.17099 -0.16823,-4.26032 1.55042,-6.30283 0.78371,-0.93137 3.23059,-2.15392 4.31416,-2.1555 0.81383,-0.001 0.86441,-0.0537 1.58505,-1.64385 l 0.7444,-1.64262 -1.49824,0.1535 c -1.72939,0.17718 -2.42241,-0.13102 -3.05789,-1.35991 -1.22768,-2.37406 1.54141,-7.88032 4.79868,-9.54205 0.54649,-0.2788 1.45702,-0.50796 2.06691,-0.5202 0.95056,-0.0191 1.17826,0.0768 1.7787,0.74878 0.67679,0.75746 0.68655,0.80629 0.57001,2.85036 l -0.11858,2.0797 1.08337,-0.15901 c 2.23157,-0.32754 2.36327,-0.54885 2.36859,-3.98031 0.005,-3.34363 -1.5829,-4.87181 -4.91958,-4.73397 -2.50094,0.10331 -4.44688,1.08921 -6.80506,3.44772 -2.94933,2.94974 -4.57247,6.60917 -4.38705,9.89071 0.0877,1.55181 0.14653,1.70392 0.9407,2.43172 l 0.84716,0.77637 -0.9357,0.64843 c -3.08025,2.13462 -5.13695,6.6774 -4.4263,9.7767 0.31014,1.35263 0.76125,1.99168 1.91593,2.71414 1.20029,0.751 3.81357,0.59963 5.71007,-0.33074 z m 41.3307,-53.5117 c 0,-0.65584 -0.79502,-2.06646 -1.35318,-2.40098 -1.12921,-0.676751 -3.87025,-3.343036 -5.55413,-5.402662 -1.55614,-1.903364 -1.69603,-2.012659 -2.76621,-2.161105 -0.61996,-0.08599 -1.16526,-0.118286 -1.21179,-0.07176 -0.12888,0.128888 1.83352,2.696661 3.41677,4.470788 0.77574,0.869268 1.29272,1.580488 1.14884,1.580488 -0.14387,0 -3.42054,-0.59343 -7.28148,-1.318734 -3.86094,-0.725303 -7.07029,-1.268328 -7.1319,-1.206724 -0.0967,0.09665 0.96084,2.725634 1.19156,2.962276 0.0626,0.06423 18.42301,3.622823 19.36591,3.753483 0.0966,0.0134 0.17561,-0.0789 0.17561,-0.20507 z m -46.1131,-33.761002 c 0.50758,-0.407897 0.92286,-0.838635 0.92286,-0.9572 0,-0.118565 -1.01488,-1.534862 -2.25529,-3.147327 l -2.25529,-2.931754 1.01464,-0.873869 1.01463,-0.873869 -1.04227,-1.435231 c -0.57325,-0.789377 -1.14997,-1.438302 -1.28161,-1.442055 -0.13163,-0.0037 -0.63111,0.316114 -1.10996,0.710814 -0.47884,0.394703 -0.95066,0.668172 -1.04849,0.607711 -0.0978,-0.06046 -2.97006,-3.751917 -6.38273,-8.203229 -3.41267,-4.451313 -6.28221,-8.096489 -6.37677,-8.100392 -0.0945,-0.0039 -0.50853,0.293676 -0.91996,0.661286 l -0.74805,0.668382 2.76477,11.097473 c 2.83252,11.36942 2.89309,11.549652 4.55033,13.539149 l 0.6686,0.802653 3.13299,-2.538118 c 1.72315,-1.395966 3.24277,-2.621128 3.37694,-2.722583 0.14877,-0.112493 1.14987,0.998561 2.56584,2.84766 1.27704,1.667669 2.35881,3.032124 2.40393,3.032124 0.0451,0 0.49732,-0.333731 1.00489,-0.741625 z"
     style="fill:#0000ff;stroke-width:0.415932" />
  <path
     transform="scale(0.26458334)"
     id="path5550"
     d="m 109.6479,57.04734 c -0.98985,-3.873018 -1.76371,-7.077872 -1.71968,-7.121899 0.0713,-0.07126 7.47414,9.42637 7.91926,10.160133 0.12077,0.199082 -0.56722,0.899838 -2.11034,2.149497 l -2.28952,1.854119 z"
     style="fill:#0083b6;stroke-width:0.415932;fill-opacity:1" />
</svg>
