<?xml version="1.0" encoding="UTF-8" standalone="no"?>
<svg
   xmlns:dc="http://purl.org/dc/elements/1.1/"
   xmlns:cc="http://creativecommons.org/ns#"
   xmlns:rdf="http://www.w3.org/1999/02/22-rdf-syntax-ns#"
   xmlns:svg="http://www.w3.org/2000/svg"
   xmlns="http://www.w3.org/2000/svg"
   id="svg914"
   version="1.1"
   viewBox="0 0 127 127"
   height="5in"
   width="5in">
  <defs
     id="defs908" />
  <metadata
     id="metadata911">
    <rdf:RDF>
      <cc:Work
         rdf:about="">
        <dc:format>image/svg+xml</dc:format>
        <dc:type
           rdf:resource="http://purl.org/dc/dcmitype/StillImage" />
        <dc:title></dc:title>
      </cc:Work>
    </rdf:RDF>
  </metadata>
  <g
     transform="translate(0,-169.99998)"
     id="layer1">
    <path
       id="path2563-1"
       d="m 64.128798,178.2404 c -0.107868,0.11688 -0.342973,0.34845 -0.606703,0.67863 l -54.4913416,54.64825 6.8273626,14.74128 0.20395,0.47593 c 0.150027,0.82259 0.270324,1.41848 0.367406,1.78655 0.04199,0.1408 0.07246,0.26266 0.119555,0.38699 0.04939,0.2108 0.201652,0.52534 0.485559,0.70813 0.06344,0.0494 0.124253,0.0494 0.187574,0.0742 l 46.153965,39.14013 c 0.03542,0.0938 0.09609,0.18772 0.263736,0.36147 0.09139,0.0938 0.245949,0.23467 0.532658,0.2956 0.194568,0.0494 0.426033,0.004 0.618456,-0.0742 l 0.02144,0.0247 0.07245,-0.0742 c 0.05597,-0.0247 0.105468,-0.0494 0.147716,-0.0938 0.133635,-0.0938 0.220342,-0.18774 0.275265,-0.26927 L 110.9911,252.10046 c 0.13834,-0.0494 0.28255,-0.0494 0.56551,-0.21079 0.19458,-0.0938 0.44618,-0.27915 0.61568,-0.61921 0.1688,-0.3376 0.15951,-0.78306 0.0419,-1.09017 l -0.0799,-0.2108 v -0.006 l 5.75558,-16.43431 -52.081215,-55.15457 c -0.451553,-0.51787 -1.274565,-0.59748 -1.679857,-0.13421 z m 0.768297,2.63348 34.699054,59.20183 -34.918256,15.1912 -35.436307,-15.12318 z m -5.255044,4.79336 -32.671123,54.30785 c -0.04939,0.0494 -0.09608,0.0938 -0.145324,0.1408 -0.117264,0.11688 -0.459052,0.4364 -0.941558,0.89331 -2.369662,2.19675 -3.686124,3.03449 -7.834002,7.30993 -0.02138,-0.0494 -0.02138,-0.0494 -0.02138,-0.11688 l -0.02138,-0.14081 -6.531276,-14.09895 z m 10.584387,0.27913 45.327952,48.07272 -4.98276,14.2377 -8.71328,-8.34008 z m -33.103318,28.19454 -13.51846,9.85029 -2.022133,2.76836 1.755566,5.79675 -4.313653,5.89177 0.497744,1.64113 4.313661,-5.89169 0.544843,1.80292 2.028,-2.76845 -0.544848,-1.80522 11.665058,-15.94313 z m 55.201847,0.72871 c -0.509685,0.0742 -0.908735,0.32607 -1.190309,0.78059 -0.540399,0.87453 -0.46325,2.08898 0.227419,3.64149 0.682029,1.54273 1.960482,3.33298 3.834069,5.37362 l 0.983052,-0.89323 c -1.279165,-1.31061 -2.180627,-2.49904 -2.703147,-3.56459 -0.522618,-1.06672 -0.614255,-1.87094 -0.278067,-2.41578 0.318164,-0.51546 0.916239,-0.57721 1.800107,-0.18774 0.877084,0.37054 1.813011,1.05972 2.806726,2.07259 0.947414,0.96593 1.846304,2.17098 2.697143,3.61194 0.84145,1.43247 1.86482,3.57578 3.06725,6.43348 0.77225,1.8381 1.49957,3.38362 2.17896,4.6365 0.68205,1.24969 1.4353,2.42147 2.25897,3.5142 0.49836,0.66614 1.05221,1.29885 1.66103,1.90609 l 3.75714,-6.08708 -2.41002,-2.45744 -2.79184,4.51809 c -0.3782,-0.59038 -0.72446,-1.21213 -1.05109,-1.85924 -0.33593,-0.65626 -0.92931,-1.96465 -1.77338,-3.93167 -1.02147,-2.36613 -1.86408,-4.16806 -2.52253,-5.40621 -0.65625,-1.24261 -1.33167,-2.34217 -2.02799,-3.29831 -0.69635,-0.95655 -1.450547,-1.85447 -2.267838,-2.68817 -1.60693,-1.63881 -3.11601,-2.75246 -4.520987,-3.34564 -0.438873,-0.18774 -0.832292,-0.30219 -1.187255,-0.34006 -0.194568,-0.0247 -0.380248,-0.0494 -0.55053,-0.002 z m -26.847474,0.11688 c -2.888659,0 -5.186629,1.04572 -6.892464,3.13815 -1.95485,2.4031 -2.930985,6.24905 -2.930985,11.54081 0,4.73144 0.881765,8.13267 2.64981,10.19957 1.767988,2.05374 4.052405,3.07904 6.853925,3.07904 1.643497,0 3.116527,-0.39194 4.411468,-1.17459 1.294866,-0.78552 2.30887,-1.91079 3.043515,-3.3813 0.747158,-1.48172 1.122091,-3.08084 1.122091,-4.7992 0,-2.61455 -0.793189,-4.74264 -2.374546,-6.38615 -1.568936,-1.6552 -3.472845,-2.48404 -5.714048,-2.48404 -1.28245,0 -2.509683,0.2956 -3.68012,0.8933 -1.170376,0.5978 -2.160234,1.51219 -2.969631,2.74449 0.02138,-2.73938 0.343939,-4.84828 0.95352,-6.32999 0.61047,-1.48172 1.443279,-2.6092 2.501727,-3.38096 0.809326,-0.59781 1.747831,-0.89794 2.818609,-0.89794 1.332148,0 2.454389,0.48088 3.363307,1.43948 0.547644,0.59779 0.971328,1.5568 1.270258,2.87763 l 3.342604,-0.26267 c -0.273868,-2.12874 -1.101919,-3.79572 -2.484,-5.00364 -1.369666,-1.20737 -3.130836,-1.81224 -5.284871,-1.81224 z m -31.99597,3.70951 -8.11526,11.0909 -1.270259,-4.18354 z m 31.492699,8.98883 c 1.531438,0 2.801807,0.55086 3.810411,1.64582 1.008604,1.08319 1.509857,2.56911 1.509857,4.46186 0,1.96703 -0.508946,3.52358 -1.530718,4.66886 -1.021041,1.14642 -2.239945,1.72083 -3.6594,1.72083 -0.971329,0 -1.899047,-0.2742 -2.783069,-0.82258 -0.883882,-0.55991 -1.574336,-1.36915 -2.072303,-2.42772 -0.485568,-1.05732 -0.72847,-2.16629 -0.72847,-3.32474 0,-1.76776 0.526077,-3.19208 1.58395,-4.27519 1.058307,-1.09487 2.350512,-1.6459 3.869581,-1.6459 z m 35.856728,14.075 8.92351,8.72206 -44.161427,37.64803 0.275265,-31.16102 z m -72.841497,0.0742 35.664334,15.21796 -0.206348,31.21141 -44.442765,-37.69233 c 0.340229,-0.36065 0.568312,-0.61919 1.207894,-1.25198 0.995238,-0.98701 2.246505,-2.19676 3.469931,-3.37512 1.644435,-1.58259 2.802534,-2.6871 3.555799,-3.40189 0.235161,-0.21079 0.488362,-0.45452 0.751847,-0.70813 z m 61.220839,9.36465 c -0.283915,-0.006 -0.598536,0.0494 -0.944375,0.14079 -1.106599,0.31455 -2.413154,1.11366 -3.917007,2.40105 -1.416317,1.21205 -2.57909,2.49828 -3.487657,3.85484 -0.917174,1.36446 -1.508458,2.70974 -1.773389,4.04117 -0.263736,1.33639 -0.166495,2.74663 0.286709,4.22785 0.436813,1.42317 1.04026,2.27654 1.811831,2.5612 0.764527,0.29806 1.730721,0.21079 2.895534,-0.27915 1.156074,-0.47839 2.358734,-1.25198 3.60913,-2.32108 1.731189,-1.48172 3.062629,-3.07393 3.996866,-4.77862 0.925607,-1.69736 1.210235,-3.13528 0.849654,-4.31084 -0.348877,-1.13943 -1.18374,-1.58488 -2.498797,-1.33869 -1.315037,0.2462 -2.766846,1.05504 -4.358132,2.41603 -0.953038,0.81599 -1.794951,1.70913 -2.522547,2.68537 -0.734553,0.98709 -1.268616,1.91079 -1.601759,2.76819 -0.04199,-0.11687 -0.0774,-0.21079 -0.0961,-0.27419 -0.180491,-0.59038 -0.24175,-1.27075 -0.180491,-2.04204 0.06344,-0.77153 0.215654,-1.47471 0.461848,-2.11006 0.248009,-0.63071 0.617798,-1.28244 1.107312,-1.95303 0.480375,-0.66365 1.083159,-1.30583 1.809022,-1.92716 0.848005,-0.72707 1.586528,-1.17689 2.217434,-1.35047 0.631387,-0.16386 1.141072,-0.0247 1.530731,0.45698 l 2.229389,-2.0655 c -0.324012,-0.5138 -0.799029,-0.77811 -1.424052,-0.7921 z m -42.784711,1.5638 c -0.534063,1.29653 -1.181862,2.36563 -1.945228,3.20633 -1.07074,1.20274 -2.363027,2.17337 -3.878519,2.91632 -1.52299,0.73613 -2.960245,1.15351 -4.310747,1.25899 l -0.402565,1.33169 10.827177,8.53563 0.497745,-1.64351 -8.192186,-6.4572 c 1.341048,-0.16386 2.694113,-0.6052 4.059133,-1.31761 1.355595,-0.71059 2.517738,-1.64821 3.481725,-2.80971 0.964062,-1.16049 1.620296,-2.28114 1.974776,-3.35725 z m 42.328775,5.09833 c 0.69635,-0.0494 1.143176,0.25774 1.341286,0.90263 0.252543,0.82257 0.07245,1.82169 -0.550524,3.00524 -0.619859,1.1816 -1.455462,2.22254 -2.504652,3.12054 -1.014235,0.86746 -1.951573,1.36915 -2.815683,1.50279 -0.872627,0.1408 -1.433895,-0.18772 -1.684525,-1.01278 -0.250147,-0.81846 -0.0961,-1.76076 0.471237,-2.83052 0.558432,-1.05743 1.385135,-2.05382 2.47804,-2.99019 1.084103,-0.92847 2.068092,-1.47941 2.951813,-1.6576 0.110172,-0.0247 0.215732,-0.0494 0.313965,-0.0494 z"
       style="color:#000000;font-style:normal;font-variant:normal;font-weight:normal;font-stretch:normal;font-size:medium;line-height:normal;font-family:sans-serif;font-variant-ligatures:normal;font-variant-position:normal;font-variant-caps:normal;font-variant-numeric:normal;font-variant-alternates:normal;font-feature-settings:normal;text-indent:0;text-align:start;text-decoration:none;text-decoration-line:none;text-decoration-style:solid;text-decoration-color:#000000;letter-spacing:normal;word-spacing:normal;text-transform:none;writing-mode:lr-tb;direction:ltr;text-orientation:mixed;dominant-baseline:auto;baseline-shift:baseline;text-anchor:start;white-space:normal;shape-padding:0;clip-rule:nonzero;display:inline;overflow:visible;visibility:visible;opacity:1;isolation:auto;mix-blend-mode:normal;color-interpolation:sRGB;color-interpolation-filters:linearRGB;solid-color:#000000;solid-opacity:1;vector-effect:none;fill:#000000;fill-opacity:0.99470903;fill-rule:nonzero;stroke:none;stroke-width:0.59949601;stroke-linecap:round;stroke-linejoin:bevel;stroke-miterlimit:4;stroke-dasharray:none;stroke-dashoffset:45.35433197;stroke-opacity:1;paint-order:stroke markers fill;color-rendering:auto;image-rendering:auto;shape-rendering:auto;text-rendering:auto;enable-background:accumulate" />
  </g>
</svg>
