<?xml version="1.0" encoding="UTF-8" standalone="no"?>
<svg
   xmlns:dc="http://purl.org/dc/elements/1.1/"
   xmlns:cc="http://creativecommons.org/ns#"
   xmlns:rdf="http://www.w3.org/1999/02/22-rdf-syntax-ns#"
   xmlns:svg="http://www.w3.org/2000/svg"
   xmlns="http://www.w3.org/2000/svg"
   id="svg2334"
   version="1.1"
   viewBox="0 0 127 127"
   height="5in"
   width="5in">
  <defs
     id="defs2328" />
  <metadata
     id="metadata2331">
    <rdf:RDF>
      <cc:Work
         rdf:about="">
        <dc:format>image/svg+xml</dc:format>
        <dc:type
           rdf:resource="http://purl.org/dc/dcmitype/StillImage" />
        <dc:title></dc:title>
      </cc:Work>
    </rdf:RDF>
  </metadata>
  <g
     transform="translate(0,-169.99998)"
     id="layer1">
    <path
       style="color:#000000;font-style:normal;font-variant:normal;font-weight:normal;font-stretch:normal;font-size:medium;line-height:normal;font-family:sans-serif;font-variant-ligatures:normal;font-variant-position:normal;font-variant-caps:normal;font-variant-numeric:normal;font-variant-alternates:normal;font-feature-settings:normal;text-indent:0;text-align:start;text-decoration:none;text-decoration-line:none;text-decoration-style:solid;text-decoration-color:#000000;letter-spacing:normal;word-spacing:normal;text-transform:none;writing-mode:lr-tb;direction:ltr;text-orientation:mixed;dominant-baseline:auto;baseline-shift:baseline;text-anchor:start;white-space:normal;shape-padding:0;clip-rule:nonzero;display:inline;overflow:visible;visibility:visible;opacity:1;isolation:auto;mix-blend-mode:normal;color-interpolation:sRGB;color-interpolation-filters:linearRGB;solid-color:#000000;solid-opacity:1;vector-effect:none;fill:#000000;fill-opacity:0.99470903;fill-rule:nonzero;stroke:none;stroke-width:1.68612015;stroke-linecap:round;stroke-linejoin:bevel;stroke-miterlimit:4;stroke-dasharray:none;stroke-dashoffset:45.35433197;stroke-opacity:1;paint-order:stroke markers fill;color-rendering:auto;image-rendering:auto;shape-rendering:auto;text-rendering:auto;enable-background:accumulate"
       d="m 79.677086,184.23417 -50.157359,17.16733 -0.230699,0.69548 -0.33909,0.11145 0.03694,47.11589 0.153162,0.48595 21.543745,30.81226 0.385567,-0.12979 0.621264,0.41884 49.730144,-20.48237 0.52216,-0.78085 v -45.04531 l -0.25248,-0.16666 0.0942,-0.31918 -21.154307,-29.56757 z m -0.04796,1.80276 20.155704,28.17213 -25.808568,10.06461 -22.285624,8.69111 -15.416019,-22.71089 -5.165358,-7.61047 z m -16.796056,10.14121 -1.694019,0.77714 c -0.035,1.13874 -0.378178,2.45576 -1.029179,3.94865 -0.650811,1.493 -1.553188,2.92351 -2.707419,4.29283 l 1.160414,2.55331 c 0.679782,-0.67879 1.392979,-1.55605 2.139466,-2.63162 0.7562,-1.07939 1.31287,-2.06848 1.669836,-2.96545 l 7.650422,16.82967 2.628457,-1.20559 z m -32.199082,8.76581 0.892597,1.31498 19.004547,27.99777 v 43.20028 L 30.669127,249.04991 Z m 69.626872,10.89294 v 43.24386 l -48.048044,19.78973 v -44.29644 z m -63.901556,12.36241 -1.864453,7.47794 2.219186,3.21523 c 0.350108,-0.0925 0.831689,0.0925 1.444472,0.55824 0.612775,0.45596 1.299952,1.18517 2.061652,2.18968 1.225564,1.61539 2.214698,3.31061 2.967555,5.08574 0.761547,1.78607 1.142317,3.3579 1.142317,4.71256 0,1.42438 -0.393865,2.04925 -1.181633,1.87266 -0.787947,-0.18562 -1.750863,-1.01454 -2.888982,-2.51478 -0.945388,-1.24634 -1.755299,-2.61709 -2.429343,-4.1126 -0.665383,-1.49302 -1.089716,-2.96729 -1.273554,-4.42341 l -2.48197,-3.06024 c 0.15687,1.83434 0.788126,3.97221 1.891134,6.4113 1.111872,2.45059 2.542978,4.83002 4.293791,7.13776 2.136008,2.81558 3.821204,4.25375 5.055522,4.31512 1.015517,0.0521 1.523097,-0.78081 1.523097,-2.53125 0,-1.83799 -0.577703,-4.10405 -1.733147,-6.79711 -1.155614,-2.69317 -2.573723,-5.14749 -4.254507,-7.36288 -1.269317,-1.67295 -2.481832,-2.86678 -3.637351,-3.5807 l 1.037483,-3.8312 7.68169,10.12515 v -2.26941 z m 43.130964,5.9259 c -0.775764,-0.0125 -1.595264,0.11146 -2.459091,0.34847 -2.003872,0.57126 -3.685596,1.63035 -5.045612,3.17601 -1.359938,1.53383 -2.241273,3.40577 -2.644082,5.61543 l 3.103322,-0.33026 c 0.246973,-1.59874 0.777609,-2.89549 1.592132,-3.89184 0.814519,-0.99603 1.826173,-1.66741 3.035457,-2.01179 1.220769,-0.34847 2.212887,-0.25608 2.976321,0.28012 0.763396,0.53413 1.13882,1.37616 1.126456,2.52571 -0.01563,1.45035 -0.557025,2.67611 -1.624255,3.67505 -1.067011,0.99966 -2.262608,1.6877 -3.586996,2.0655 -0.127371,0.0392 -0.293841,0.0744 -0.500954,0.11146 l -0.375259,2.84979 c 0.877829,-0.48205 1.610584,-0.80681 2.197824,-0.97375 1.439488,-0.40973 2.620483,-0.28009 3.543131,0.39537 0.922683,0.66212 1.376546,1.71378 1.360861,3.15338 -0.01625,1.50968 -0.536736,2.91941 -1.561127,4.23031 -1.012938,1.30756 -2.251056,2.16979 -3.713639,2.58713 -1.232212,0.3524 -2.27588,0.26118 -3.131198,-0.26902 -0.843678,-0.54715 -1.434314,-1.65626 -1.772081,-3.33121 l -3.11404,1.30569 c 0.184557,2.06538 1.000768,3.55677 2.448815,4.47443 1.459605,0.91439 3.30047,1.05536 5.523139,0.4208 2.464539,-0.70292 4.511289,-2.05727 6.140341,-4.0614 1.629225,-2.01589 2.455946,-4.13802 2.48007,-6.36714 0.01812,-1.64884 -0.38187,-2.90039 -1.199174,-3.75501 -0.817291,-0.86612 -1.972716,-1.25935 -3.466083,-1.18146 1.157458,-0.86241 2.034731,-1.83053 2.631884,-2.90368 0.597088,-1.07386 0.902012,-2.16127 0.913826,-3.26405 0.01229,-1.161 -0.28645,-2.16941 -0.897208,-3.02538 -0.5991,-0.85871 -1.477513,-1.41884 -2.634184,-1.67845 -0.43373,-0.0925 -0.883364,-0.14833 -1.348677,-0.16666 z"
       id="rect2434-5" />
  </g>
</svg>
