<?xml version="1.0" encoding="UTF-8" standalone="no"?>
<svg
   xmlns:dc="http://purl.org/dc/elements/1.1/"
   xmlns:cc="http://creativecommons.org/ns#"
   xmlns:rdf="http://www.w3.org/1999/02/22-rdf-syntax-ns#"
   xmlns:svg="http://www.w3.org/2000/svg"
   xmlns="http://www.w3.org/2000/svg"
   id="svg2334"
   version="1.1"
   viewBox="0 0 127 127"
   height="5in"
   width="5in">
  <defs
     id="defs2328" />
  <metadata
     id="metadata2331">
    <rdf:RDF>
      <cc:Work
         rdf:about="">
        <dc:format>image/svg+xml</dc:format>
        <dc:type
           rdf:resource="http://purl.org/dc/dcmitype/StillImage" />
        <dc:title></dc:title>
      </cc:Work>
    </rdf:RDF>
  </metadata>
  <g
     transform="translate(0,-169.99998)"
     id="layer1">
    <path
       style="color:#000000;font-style:normal;font-variant:normal;font-weight:normal;font-stretch:normal;font-size:medium;line-height:normal;font-family:sans-serif;font-variant-ligatures:normal;font-variant-position:normal;font-variant-caps:normal;font-variant-numeric:normal;font-variant-alternates:normal;font-feature-settings:normal;text-indent:0;text-align:start;text-decoration:none;text-decoration-line:none;text-decoration-style:solid;text-decoration-color:#000000;letter-spacing:normal;word-spacing:normal;text-transform:none;writing-mode:lr-tb;direction:ltr;text-orientation:mixed;dominant-baseline:auto;baseline-shift:baseline;text-anchor:start;white-space:normal;shape-padding:0;clip-rule:nonzero;display:inline;overflow:visible;visibility:visible;opacity:1;isolation:auto;mix-blend-mode:normal;color-interpolation:sRGB;color-interpolation-filters:linearRGB;solid-color:#000000;solid-opacity:1;vector-effect:none;fill:#000000;fill-opacity:0.99470903;fill-rule:nonzero;stroke:none;stroke-width:1.83243883;stroke-linecap:round;stroke-linejoin:bevel;stroke-miterlimit:4;stroke-dasharray:none;stroke-dashoffset:45.35433197;stroke-opacity:1;paint-order:stroke markers fill;color-rendering:auto;image-rendering:auto;shape-rendering:auto;text-rendering:auto;enable-background:accumulate"
       d="m 61.617701,178.22077 c -0.0091,6.1e-4 -0.191774,0.0141 -0.191774,0.0141 0,2e-4 -0.163782,0.0421 -0.163782,0.0421 0,0 0.03226,0.0799 0.05612,0.13958 l -0.101848,-0.0996 -40.187254,18.48199 c -0.08985,0.021 -0.193738,0.0631 -0.325326,0.13959 -0.21092,0.11994 -0.379261,0.41944 -0.345526,0.35913 l -0.123798,0.44961 -0.47915,51.72832 0.05612,0.014 c -0.04,0.17956 -0.04416,0.43138 0.08986,0.68319 0.153753,0.2953 0.444148,0.45523 0.638093,0.50924 0.03018,0.014 0.04559,0.001 0.07589,0.005 l 41.652547,28.51995 1.059321,-0.014 c 6.617814,-4.82465 16.677913,-12.05114 25.021833,-18.08092 4.171967,-3.01503 7.916256,-5.72964 10.587823,-7.69743 1.33593,-0.98466 2.40384,-1.78156 3.12992,-2.34053 0.36313,-0.27987 0.63655,-0.49732 0.83224,-0.66285 0.0978,-0.08 0.16975,-0.13959 0.25483,-0.23779 0.0442,-0.0421 0.0879,-0.0631 0.18378,-0.24971 0.0443,-0.08 0.15579,-0.22375 0.10388,-0.55552 l -0.47936,-51.62248 -0.0839,-0.37316 c -0.16974,-0.37176 -0.4022,-0.44962 -0.52467,-0.50152 -0.0498,-0.021 -0.0702,-0.021 -0.10584,-0.0421 l -40.01071,-18.40132 -0.01964,-0.005 c -0.147789,-0.08 -0.195702,-0.0996 -0.259808,-0.11995 -0.01964,-0.005 0.07989,-4.2e-4 -0.17978,-0.0631 -0.03226,-0.005 -0.15179,-0.021 -0.159783,-0.021 h -0.0024 z m 0.471573,0.15994 h 0.0047 c 0.0024,0.002 0.0024,0.002 0.0047,0.005 -0.0024,-10e-4 -0.0098,-0.005 -0.0098,-0.005 z m 0.175775,0.13958 h 0.0024 c 0.0036,0.002 0.0047,0.002 0.0047,0.002 0,0 0.02387,0.0421 0.04422,0.0631 -0.02387,-0.0421 -0.03369,-0.0421 -0.04982,-0.0631 z m -0.660883,2.45655 39.324684,67.57735 -77.880144,-0.26585 z m -2.254771,0.21183 -37.728188,64.83573 0.443791,-47.68793 z m 4.499472,0 37.284283,17.1478 0.44414,47.68793 -12.128815,-20.84026 z m -22.658652,14.91809 c -0.889961,-0.021 -2.074478,0.55905 -3.553634,1.73562 l -0.135796,2.4414 c 1.12303,-0.99063 2.014884,-1.45203 2.675963,-1.38806 0.661097,0.0631 1.012586,0.61936 1.056719,1.66765 0.04422,0.99063 -0.225858,2.05828 -0.802077,3.20568 -0.567601,1.14845 -1.286008,2.10906 -2.156413,2.88281 -0.829836,0.73699 -1.72698,1.18437 -2.691078,1.33811 -0.956064,0.13959 -2.271258,-0.0421 -3.947079,-0.53939 -1.077497,-0.32967 -2.020912,-0.47697 -2.829823,-0.44331 -0.808469,0.0421 -1.620939,0.27146 -2.438878,0.68881 -0.49591,0.24761 -1.007986,0.61515 -1.536054,1.10244 l 0.494298,11.71024 2.110992,-1.87738 -0.368321,-8.68862 c 0.409002,-0.11995 0.817058,-0.15993 1.223293,-0.13959 0.414406,0.0141 1.201717,0.17957 2.363218,0.50713 1.400235,0.37738 2.495885,0.56116 3.288838,0.54923 0.793293,-0.003 1.543441,-0.15993 2.247183,-0.49101 0.703814,-0.32546 1.412829,-0.80685 2.128664,-1.44199 1.407436,-1.25023 2.565538,-2.79352 3.475463,-4.63057 0.90993,-1.8374 1.330336,-3.60675 1.258443,-5.30653 -0.0719,-1.68364 -0.571599,-2.63155 -1.500705,-2.84248 -0.115804,-0.0421 -0.236239,-0.0421 -0.36327,-0.0421 z m 37.844214,0.28969 -1.823449,5.67731 11.036738,10.40102 0.754145,-1.0445 c -0.56844,-0.72703 -0.992021,-1.43204 -1.268626,-2.11608 -0.286395,-0.69301 -0.357727,-1.26622 -0.211907,-1.71759 0.233293,-0.72696 0.870991,-0.94665 1.911734,-0.66074 1.042343,0.28127 2.341243,1.05649 3.894152,2.32278 1.633521,1.33412 2.869339,2.63548 3.707485,3.90929 0.838627,1.27421 1.148992,2.24829 0.930698,2.92314 -0.179776,0.56114 -0.681648,0.75894 -1.505697,0.5892 -0.832631,-0.17957 -1.963258,-0.7849 -3.389741,-1.81348 l -0.231888,1.66969 c 1.895345,1.42797 3.513229,2.27719 4.852555,2.54464 1.341122,0.26164 2.178592,-0.11995 2.512032,-1.16437 0.40704,-1.26622 -0.16974,-2.99861 -1.730182,-5.19557 -1.268836,-1.79545 -2.906422,-3.50989 -4.913082,-5.14758 -2.107485,-1.71963 -3.942047,-2.7865 -5.503245,-3.19551 -1.561214,-0.40964 -2.501784,-0.11994 -2.822236,0.88276 -0.241637,0.75291 -0.0047,1.84938 0.701224,3.29138 l -5.763027,-5.47796 1.462953,-4.55502 z m -16.822453,18.87283 c -1.926111,0 -3.468332,0.63339 -4.628053,1.89934 -1.159782,1.26622 -1.740369,2.82963 -1.740369,4.68863 0,1.23235 0.270188,2.28982 0.814659,3.17279 0.544663,0.88275 1.382671,1.5618 2.512038,2.03793 -1.351315,0.40753 -2.393757,1.17637 -3.129954,2.30258 -0.72618,1.11647 -1.089473,2.50257 -1.089473,4.16404 0,2.23083 0.668883,4.09523 2.010128,5.59412 1.341325,1.48794 3.108082,2.23209 5.29646,2.23209 2.188343,0 3.952637,-0.74492 5.293901,-2.23209 1.341329,-1.48788 2.012604,-3.32394 2.012604,-5.50826 0,-1.57983 -0.358287,-2.9371 -1.074491,-4.07573 -0.705814,-1.13842 -1.740767,-1.96519 -3.10219,-2.47675 1.099269,-0.47697 1.917125,-1.15237 2.451515,-2.02271 0.544661,-0.88283 0.81726,-1.91533 0.81726,-3.0997 0,-1.85941 -0.588152,-3.4342 -1.768127,-4.72398 -1.179953,-1.30222 -2.739719,-1.95132 -4.675984,-1.95132 z m 0.03369,2.58021 c 1.028567,0 1.886765,0.39561 2.572567,1.18437 0.69582,0.77887 1.044138,1.73955 1.044138,2.89031 0,1.10447 -0.338092,2.04018 -1.013778,2.80712 -0.665656,0.75496 -1.523675,1.13239 -2.572568,1.13239 -1.079092,0 -1.957465,-0.38367 -2.633061,-1.15041 -0.675691,-0.76688 -1.013777,-1.7535 -1.013777,-2.96102 0,-1.06849 0.343347,-1.98722 1.028953,-2.75395 0.685857,-0.76695 1.549041,-1.15042 2.587692,-1.15042 z m -0.04768,10.58023 c 1.310963,0 2.401382,0.49311 3.268667,1.47988 0.87738,0.98664 1.31657,2.2349 1.31657,3.74543 0,1.48788 -0.426614,2.71279 -1.273628,3.67704 -0.847214,0.96461 -1.919915,1.44795 -3.220736,1.44795 -0.837027,0 -1.619535,-0.22375 -2.345584,-0.67898 -0.72618,-0.46505 -1.276217,-1.11646 -1.649497,-1.95123 -0.363059,-0.83688 -0.542274,-1.70363 -0.542274,-2.59782 0,-1.46395 0.416788,-2.68361 1.25345,-3.65965 0.847013,-0.97667 1.912322,-1.46199 3.192955,-1.46199 z m 37.697948,21.97006 c -0.61375,0.46155 -1.169363,0.88276 -2.047928,1.5299 -2.66176,1.96127 -6.399753,4.67362 -10.570172,7.68746 -8.165529,5.90072 -17.879298,12.87974 -24.507308,17.70761 L 23.826649,250.65862 Z m -36.154424,3.83865 -2.847446,0.021 c 0.01964,1.3581 -0.189732,2.90075 -0.622939,4.6279 -0.44078,1.73358 -1.085486,3.3717 -1.934493,4.91317 -0.848816,1.54181 -1.687641,2.72694 -2.514573,3.55364 l 0.01964,2.14379 10.098487,-0.08 -0.02386,-2.74153 -6.716372,0.0561 c 1.372481,-1.75554 2.466091,-3.74403 3.281214,-5.96489 0.808269,-2.22074 1.229882,-4.39705 1.261041,-6.52731 z"
       id="path2592-1" />
  </g>
</svg>
