<?xml version="1.0" encoding="UTF-8"?>
<svg width="2in" height="2in" version="1.1" viewBox="0 0 50.8 50.8" xmlns="http://www.w3.org/2000/svg"><g transform="translate(0 -246.2)"><path d="m25.488 249.62c-0.20136 0.0109-0.31572 0.17448-0.28842 0.14491l-23.426 29.35c-0.18049 0.20862-0.09757 0.5437 0.15912 0.64455l30.933 12.911a0.15755 0.15755 0 0 0 0.0033 1e-3l0.20035 0.0788c0.1694 0.0665 0.36411 0.011 0.47333-0.13385l0.15579-0.20614 15.369-20.389c0.12434-0.16503 0.10437-0.40031-0.04631-0.54175a0.15755 0.15755 0 0 0-1e-3 0l-22.997-21.521-0.2293-0.2228a0.15755 0.15755 0 0 0-8.83e-4 -1e-3c-0.05898-0.057-0.1334-0.0947-0.21491-0.10858-0.03215-6e-3 -0.06263-7e-3 -0.0914-6e-3zm0.6021 1.9226 21.707 20.316-14.33 19.012c-2.4588-13.109-4.9177-26.218-7.3766-39.327zm-1.1253 0.21228c2.4712 13.174 4.9428 26.348 7.4138 39.523l-29.121-12.19z" color="#000000" color-rendering="auto" dominant-baseline="auto" image-rendering="auto" shape-rendering="auto" solid-color="#000000" style="font-feature-settings:normal;font-variant-alternates:normal;font-variant-caps:normal;font-variant-ligatures:normal;font-variant-numeric:normal;font-variant-position:normal;isolation:auto;mix-blend-mode:normal;shape-padding:0;text-decoration-color:#000000;text-decoration-line:none;text-decoration-style:solid;text-indent:0;text-orientation:mixed;text-transform:none;white-space:normal"/></g><path transform="scale(.26458)" d="m67.162 147.11-54.594-22.863 1.2091-1.543c12.529-15.989 80.37-101.11 80.483-100.99 0.13186 0.14849 27.859 147.59 27.851 148.1-1e-3 0.0966-0.0817 0.17158-0.17833 0.16665-0.0966-5e-3 -24.743-10.297-54.77-22.872z" fill="#ffafff" stroke-width=".41593"/><path transform="scale(.26458)" d="m126.45 167.85c-0.39479-1.6625-27.507-146.69-27.454-146.86 0.05569-0.17092 75.693 70.415 79.833 74.502l1.5776 1.5572-26.825 35.589c-14.754 19.574-26.865 35.628-26.913 35.676-0.048 0.048-0.14653-0.16223-0.21894-0.46718z" fill="#ffafff" stroke-width=".41593"/></svg>
