<?xml version="1.0" encoding="UTF-8"?>
<svg width="5in" height="5in" version="1.1" viewBox="0 0 127 127" xmlns="http://www.w3.org/2000/svg"><g transform="translate(0 -170)"><path d="m61.36 174.74-0.23071 0.0165c0 1.7e-4 -0.1931 0.0496-0.1931 0.0496s0.03557 0.0943 0.06365 0.16458l-0.11536-0.11743-47.377 21.79c-0.10593 0.0247-0.2284 0.0744-0.38213 0.16455-0.24866 0.14142-0.44762 0.49452-0.4081 0.4234l-0.14596 0.53007-0.56629 60.985 0.06616 0.0165c-0.04716 0.2117-0.05206 0.50857 0.10593 0.80544 0.18126 0.34815 0.52412 0.53421 0.75277 0.59788 0.03557 0.0165 0.05206 0 0.08715 5e-3l49.106 33.625 1.2472-0.0165c7.802-5.6882 19.665-14.21 29.502-21.319 4.9185-3.5543 9.3304-6.7554 12.48-9.0753 1.575-1.1609 2.8333-2.098 3.6893-2.758 0.42802-0.32994 0.75301-0.58629 0.98399-0.78146 0.11535-0.0943 0.20011-0.16455 0.30208-0.27784 0.0521-0.0496 0.10358-0.0745 0.21666-0.2944 0.0521-0.0943 0.18365-0.26626 0.12006-0.65493l-0.56513-60.861-0.0965-0.43828c-0.20011-0.43827-0.47235-0.53007-0.61641-0.59292-0.0587-0.0248-0.0827-0.0248-0.12709-0.0496l-47.169-21.695-0.02316-5e-3c-0.17424-0.0943-0.23311-0.11742-0.30729-0.1414-0.02316-5e-3 0.09179-6.6e-4 -0.21196-0.0745-0.03971-5e-3 -0.19308-0.0248-0.19308-0.0248zm0.55406 0.18854 0.0042 7e-4c0.0028 3e-3 0.0028 3e-3 0.0056 5e-3 0 5e-3 0.02316 0.0165 0.04716 0.0496v7e-4c-0.01733-0.0165-0.03557-0.0249-0.04716-0.0496-0.0035-2e-3 -0.01158-5e-3 -0.01158-0.0165zm0.20723 0.16457c0.0035 2e-3 0.0056 5e-3 0.0056 5e-3s0.02814 0.0496 0.05214 0.0744c-0.02814-0.0248-0.03971-0.0496-0.05873-0.0744zm-0.78246 2.8983 46.359 79.668-91.815-0.31342zm-2.6582 0.24726-44.48 76.438 0.52246-56.221zm5.3024 4.1e-4 43.958 20.217 0.52181 56.221-14.297-24.568zm42.5 81.598c-0.72358 0.54413-1.3788 1.0407-2.4144 1.8036-3.1381 2.3122-7.5469 5.5109-12.464 9.0637-9.6266 6.9568-21.076 15.185-28.89 20.877l-45.912-31.439z" color="#000000" color-rendering="auto" dominant-baseline="auto" fill-opacity=".99471" image-rendering="auto" shape-rendering="auto" solid-color="#000000" style="font-feature-settings:normal;font-variant-alternates:normal;font-variant-caps:normal;font-variant-ligatures:normal;font-variant-numeric:normal;font-variant-position:normal;isolation:auto;mix-blend-mode:normal;paint-order:stroke markers fill;shape-padding:0;text-decoration-color:#000000;text-decoration-line:none;text-decoration-style:solid;text-indent:0;text-orientation:mixed;text-transform:none;white-space:normal"/></g><g fill="#ffafff" stroke-width="1.0398"><path transform="scale(.26458)" d="m349.46 330.87c-26.722-0.0908-102.64-0.35572-168.72-0.58877l-120.13-0.42373 85.5-149.27c47.025-82.098 85.563-149.33 85.64-149.41 0.11315-0.11559 171.54 294.11 174.07 298.76l0.7504 1.3798-4.2626-0.14293c-2.3444-0.0786-26.126-0.2172-52.848-0.30798z"/><path transform="scale(.26458)" d="m326.15 175.36c-45.662-78.474-82.935-142.76-82.829-142.87 0.1772-0.17184 163.64 74.865 164.11 75.333 0.2918 0.2918 2.1465 197.94 1.921 204.71l-0.18347 5.5061z"/><path transform="scale(.26458)" d="m54.144 307c-0.003469-19.521 1.8275-198.97 2.0322-199.17 0.45928-0.45928 163.94-75.496 164.11-75.328 0.19864 0.18943-164.76 284.04-165.65 285.04-0.27204 0.30585-0.4955-4.4356-0.49658-10.537z"/><path transform="scale(.26458)" d="m54.647 312.44c-0.27252-11.801 0.99801-160.57 1.6066-188.12l0.36359-16.458 12.96-6.0008c60.148-27.851 149.23-68.524 149.49-68.258 0.28083 0.28083-32.012 56.069-119.13 205.81-39.607 68.076-44.655 76.683-44.973 76.683-0.12843 0-0.27153-1.6463-0.318-3.6585z"/><path transform="scale(.26458)" d="m150.94 400.2c-69.522-47.656-85.304-58.709-84.245-59.003 2.2081-0.61363 334.34-1.2721 333.7-0.66155-1.8509 1.7428-27.59 20.481-93.073 67.756-24.468 17.665-50.226 36.284-57.239 41.376s-12.94 9.2389-13.171 9.2158c-0.23077-0.0231-38.916-26.43-85.967-58.683z"/></g></svg>
