<?xml version="1.0" encoding="UTF-8"?>
<svg width="5in" height="5in" version="1.1" viewBox="0 0 127 127" xmlns="http://www.w3.org/2000/svg"><g transform="translate(0 -170)"><path d="m65.084 176.55c-0.0028 2.6e-4 -0.22694 0.0166-0.29935 0.0498-0.29013 0.0947-0.31371 0.142-0.36171 0.18932-0.18916 0.142-0.1679 0.16525-0.22703 0.23666-0.10878 0.11791-0.28606 0.34543-0.55186 0.67592l-54.953 55.112 6.8846 14.864 0.20809 0.47996c0.15129 0.82954 0.27145 1.4304 0.3686 1.7992 0.03988 0.14199 0.07059 0.26737 0.11824 0.39276 0.05235 0.21258 0.20568 0.52978 0.49225 0.71412 0.06391 0.0498 0.1253 0.0498 0.18675 0.0747l46.543 39.473c0.03572 0.0947 0.0969 0.18932 0.26738 0.36204 0.09225 0.0947 0.24562 0.23665 0.53501 0.30059 0.19622 0.0498 0.43146 6e-3 0.62535-0.0747l0.02325 0.0249 0.07307-0.0747c0.05644-0.0249 0.10878-0.0498 0.15129-0.0947 0.13477-0.0947 0.21988-0.18933 0.27569-0.27402l46.072-39.28c0.1395-0.0498 0.28183-0.0498 0.56814-0.21257 0.19622-0.0947 0.45281-0.28399 0.6237-0.6261 0.17022-0.34295 0.16076-0.7872 0.0423-1.0971l-0.0806-0.21258v-6e-3l5.8022-16.573-52.493-55.67c0-6e-3 -0.02325-0.0249-0.02325-0.0249 0-2.5e-4 -0.11351-0.11792-0.22221-0.21258l-0.03988-0.0498v7e-4c-0.05644-0.0498-0.12772-0.11791-0.12772-0.11791-1.87e-4 0-0.4807-0.11791-0.48186-0.11791v-5e-4zm-0.09458 0.26738c-1.87e-4 0 0.23408 0.0498 0.23408 0.0498 0-2.6e-4 0.1111 0.0747 0.21756 0.14199l-0.68066 0.51068-0.53028-0.41851c0.02325-0.0166-0.10878-0.0498 0.34137-0.21257 0.05644-0.0249 0.13003-0.0498 0.23408-0.0498 0.05235-6e-3 0.18202-6e-3 0.18202-6e-3zm0.03988 2.8597 34.993 59.704-35.215 15.319-35.736-15.249zm-5.2994 4.8329-32.948 54.77c-0.05235 0.0498-0.0969 0.0947-0.14656 0.14199-0.11824 0.11791-0.46227 0.43761-0.94882 0.90079-2.3897 2.2154-3.7198 3.0618-7.9028 7.3737-0.02325-0.0498-0.02325-0.0498-0.02325-0.11791l-0.02325-0.11791-6.5864-14.22zm10.675 0.28399 45.711 48.478-5.0268 14.358-8.7857-8.4114zm30.863 56.282 8.9973 8.7951-44.534 37.969 0.27851-31.427zm-73.46 0.0664 35.968 15.349-0.20809 31.474-44.82-38.012c0.34328-0.36454 0.57263-0.62195 1.2176-1.2603 1.0037-0.99536 2.2646-2.2178 3.4984-3.4065 1.6584-1.596 2.8277-2.7079 3.5874-3.4288 0.2374-0.21257 0.49108-0.45836 0.75729-0.71412z" color="#000000" color-rendering="auto" dominant-baseline="auto" fill-opacity=".99471" image-rendering="auto" shape-rendering="auto" solid-color="#000000" style="font-feature-settings:normal;font-variant-alternates:normal;font-variant-caps:normal;font-variant-ligatures:normal;font-variant-numeric:normal;font-variant-position:normal;isolation:auto;mix-blend-mode:normal;paint-order:stroke markers fill;shape-padding:0;text-decoration-color:#000000;text-decoration-line:none;text-decoration-style:solid;text-indent:0;text-orientation:mixed;text-transform:none;white-space:normal"/></g><g fill="#ffafff" stroke-width="1.0398"><path transform="scale(.26458)" d="m177.37 290.98c-36.702-15.695-66.653-28.778-66.556-29.074 0.0966-0.2953 30.492-50.939 67.545-112.54l67.37-112.01 1.036 1.6639c8.3319 13.381 130.47 222.89 130.12 223.2-0.78009 0.67658-131.55 57.405-132.2 57.348-0.32195-0.028-30.615-12.892-67.317-28.588z"/><path transform="scale(.26458)" d="m248.85 431.81c0.13078-7.1386 0.39862-33.674 0.5952-58.968l0.35743-45.988 132.72-57.738 11.569 11.156c14.376 13.863 22.125 21.675 21.783 21.961-0.7057 0.59025-134.27 114.42-149.62 127.5l-17.647 15.052z"/><path transform="scale(.26458)" d="m403.23 276.93-16.397-15.736-58.934-100.54c-32.414-55.299-58.866-100.61-58.782-100.69 0.24415-0.24255 168.5 178.34 168.83 179.19 0.22086 0.57554-17.528 52.66-18.191 53.381-0.0697 0.0758-7.5054-6.9432-16.524-15.598z"/><path transform="scale(.26458)" d="m155.71 373.67c-46.036-39.049-83.78-71.234-83.877-71.524-0.15339-0.46017 24.85-25.05 31.195-30.679l2.3493-2.0842 135.2 57.7-0.22372 56.41c-0.12304 31.025-0.38646 57.482-0.58537 58.792l-0.36165 2.382z"/><path transform="scale(.26458)" d="m54.958 265.9-12.359-26.763 89.92-90.24c49.456-49.632 90.008-90.158 90.114-90.058 0.30446 0.28603-121.02 201.77-122.44 203.34-0.69669 0.76809-4.8228 4.5554-9.1692 8.4164-4.3463 3.8609-11.351 10.411-15.566 14.555-4.2151 4.1442-7.7712 7.5306-7.9024 7.5253-0.13119-5e-3 -5.8002-12.053-12.598-26.773z"/></g></svg>
