<?xml version="1.0" encoding="UTF-8"?>
<svg width="5in" height="5in" version="1.1" viewBox="0 0 127 127" xmlns="http://www.w3.org/2000/svg"><g transform="translate(0 -170)"><path d="m47.49 182.61-0.83422 0.2665-26.578 19.134-0.51742 0.7052-10.256 31.102v0.87559l9.984 31.191 0.51135 0.71012 26.411 19.365 0.83096 0.27305 32.749 0.14022 0.8333-0.26648 26.579-19.134 0.51762-0.70766 10.256-31.103v-0.87551l-9.984-31.19-0.51155-0.71012-26.411-19.365-0.83142-0.27305zm0.44781 2.8335 30.644 0.14021-6.5862 18.111-33.973 10.93-14.913-11.301zm32.69 0.77079 24.807 18.189 9.3538 29.219-19.884-0.32965-20.882-28.918zm-58.839 18.788 14.961 11.338-0.10273 35.687-15.32 10.944-9.1883-28.702zm50.683 0.6232 20.744 28.727-20.91 28.606-33.667-11.047 0.10273-35.433zm22.419 29.808 19.905 0.32882-9.6226 29.182-24.948 17.96-6.3787-18.681zm-56.992 18.329 33.913 11.128 6.3657 18.646-30.666-0.14022-25.219-18.492z" color="#000000" color-rendering="auto" dominant-baseline="auto" fill-opacity=".99471" image-rendering="auto" shape-rendering="auto" solid-color="#000000" style="font-feature-settings:normal;font-variant-alternates:normal;font-variant-caps:normal;font-variant-ligatures:normal;font-variant-numeric:normal;font-variant-position:normal;isolation:auto;mix-blend-mode:normal;paint-order:stroke markers fill;shape-padding:0;text-decoration-color:#000000;text-decoration-line:none;text-decoration-style:solid;text-indent:0;text-orientation:mixed;text-transform:none;white-space:normal"/></g><g fill="#ffafff" stroke-width="1.0398"><path transform="scale(.26458)" d="m208.98 329.95-62.634-20.609 0.0195-3.6469c0.0107-2.0058 0.0789-32.03 0.15155-66.72l0.13204-63.073 63.568-20.423c38.071-12.231 63.72-20.191 63.946-19.844 0.20779 0.31845 17.763 24.641 39.012 54.05 21.249 29.409 38.588 53.566 38.533 53.682-0.0558 0.11617-17.658 24.233-39.116 53.593-22.445 30.711-39.431 53.428-39.996 53.491-0.53985 0.0602-29.167-9.1646-63.616-20.499z"/><path transform="scale(.26458)" d="m115.79 147.07c-16.705-12.652-27.41-21.132-27.09-21.459 0.29178-0.29687 21.282-15.502 46.644-33.789l46.114-33.25 57.366 0.35836c31.551 0.1971 57.418 0.3958 57.482 0.44155 0.24878 0.17893-24.329 67.223-24.793 67.63-0.56064 0.49273-126.62 41.024-127.52 41.001-0.32195-8e-3 -13.014-9.4282-28.205-20.934z"/><path transform="scale(.26458)" d="m382.35 239.39c-12.821-0.22645-23.513-0.64315-23.761-0.92599-1.985-2.2635-78.1-108.3-78.1-108.8 0-1.2342 24.37-67.658 24.762-67.493 0.21602 0.09131 21.222 15.444 46.679 34.117l46.286 33.951 14.804 46.244c8.1422 25.434 16.044 50.129 17.56 54.878l2.7556 8.6342-13.838-0.0984c-7.611-0.0541-24.328-0.28368-37.148-0.51013z"/><path transform="scale(.26458)" d="m302.92 424.68c-0.30221-0.79488-5.6977-16.516-11.99-34.935l-11.44-33.49 1.3263-1.85c0.72948-1.0175 18.58-25.484 39.668-54.369l38.341-52.519 18.146 0.33775c9.9805 0.18577 26.745 0.50637 37.255 0.71246l19.108 0.37469-0.78292 2.4094c-0.43061 1.3252-8.5693 26.016-18.086 54.869l-17.303 52.46-25.901 18.643c-14.245 10.254-35.326 25.429-46.847 33.722-20.481 14.745-20.958 15.047-21.496 13.634z"/><path transform="scale(.26458)" d="m230.62 428.49-50.936-0.29751-47.219-34.537c-25.971-18.995-47.237-34.676-47.259-34.846-0.06092-0.47612 57.676-41.544 58.406-41.544 0.62946 0 127.17 41.425 127.48 41.731 0.2771 0.2771 23.634 69.015 23.634 69.553 0 0.28622-2.9634 0.45671-6.5854 0.37887-3.622-0.0778-29.507-0.27539-57.522-0.43902z"/><path transform="scale(.26458)" d="m63.612 297.22c-9.3966-29.378-17.083-53.808-17.08-54.289 0.0025-0.48091 8.0897-25.429 17.971-55.441 11.872-36.057 18.177-54.408 18.585-54.098 0.34023 0.25774 12.933 9.776 27.984 21.152l27.366 20.683v134.38l-28.706 20.513c-15.788 11.282-28.78 20.513-28.871 20.513-0.09074 0-7.8531-24.037-17.25-53.415z"/></g></svg>
