<?xml version="1.0" encoding="UTF-8"?>
<svg width="5in" height="5in" version="1.1" viewBox="0 0 127 127" xmlns="http://www.w3.org/2000/svg"><g transform="translate(0 -170)"><path d="m63.05 175.86c-0.16333 5e-3 -0.29398 0.0478-0.40265 0.13623l-0.01994-0.016-51.446 28.902c0 6.8e-4 -0.02008 6e-3 -0.02008 0.016l-0.02271 0.0159v6.8e-4c-0.17467 0.11307-0.35207 0.37683-0.52923 0.89603l-0.27947 56.125c0.19963 0.63735 0.44757 0.92328 0.72386 1.0162l51.18 28.369c0.4385 0.13623 0.93301 0.42384 1.1955 0.15854v-5e-3c8.5616-4.7365 21.373-11.824 32.059-17.737 5.357-2.9637 10.175-5.6298 13.649-7.5518 1.737-0.96184 3.1379-1.7354 4.1014-2.2689 0.48183-0.26769 0.85384-0.47165 1.1045-0.61027 0.0542-0.0238 0.0797-0.0478 0.12253-0.0717 0.0661 6e-3 0.14516-0.0239 0.24889-0.13624 0.12476-0.13624 0.29374-0.4079 0.53561-0.90966l-0.13838-56.379-0.0223-6.8e-4c0-0.22706-0.13839-0.50112-0.5122-0.89603l-50.949-28.926c-0.22937-0.0909-0.41874-0.13624-0.578-0.13624zm1.1222 2.8127 46.179 26.216-46.189 2.0166zm-2.1049 6e-3 -0.49546 28.172-46.151-1.9667zm-48.761 28.296 9.4255 0.40153 38.016 1.7989-25.038 47.767zm99.12 6.8e-4 -22.606 50.322-25.159-48.109 35.263-1.6673zm-49.717 2.9743 25.272 48.212-50.469-0.0238zm-50.046 0.65568 2.8648 6.3895 18.486 41.53-21.6 2.2616zm100.4 0.0238 0.12253 50.414-3.5576-0.37205-18.192-1.9032zm-25.365 49.866-24.794 28.451-24.837-28.434zm2.7223 0.25176 20.421 2.1369c-0.8223 0.45571-1.5536 0.85971-2.6951 1.4904-3.4736 1.9214-8.2928 4.5879-13.65 7.5517-8.8943 4.9207-18.526 10.249-26.683 14.762zm-55.082 0.016 22.486 25.744-43.009-23.839z" color="#000000" color-rendering="auto" dominant-baseline="auto" fill-opacity=".99471" image-rendering="auto" shape-rendering="auto" solid-color="#000000" style="font-feature-settings:normal;font-variant-alternates:normal;font-variant-caps:normal;font-variant-ligatures:normal;font-variant-numeric:normal;font-variant-position:normal;isolation:auto;mix-blend-mode:normal;paint-order:stroke markers fill;shape-padding:0;text-decoration-color:#000000;text-decoration-line:none;text-decoration-style:solid;text-indent:0;text-orientation:mixed;text-transform:none;white-space:normal"/></g><g fill="#ffafff" stroke-width="1.0398"><path transform="scale(.26458)" d="m142.54 332.75c0-0.17893 21.271-41.001 47.268-90.715l47.268-90.389 1.8445 3.6415c1.0144 2.0028 22.385 42.824 47.491 90.715l45.647 87.073h-94.759c-52.118 0-94.759-0.14639-94.759-0.32532z"/><path transform="scale(.26458)" d="m292.2 238.77c-25.968-49.662-47.151-90.334-47.074-90.384 0.46986-0.30108 178.57-8.3954 178.89-8.1303 0.17096 0.14092-82.62 185.03-84.197 188.03-0.24644 0.46872-19.083-34.94-47.622-89.519z"/><path transform="scale(.26458)" d="m242.63 86.328c0-29.167 0.19756-52.922 0.43902-52.788 13.739 7.6179 172.22 97.801 172.09 97.929-0.10331 0.10331-36.66 1.7683-81.238 3.7s-83.355 3.6647-86.172 3.8512l-5.122 0.33905z"/><path transform="scale(.26458)" d="m142.83 135.2c-42.82-1.8614-79.029-3.4754-80.465-3.5867-2.5456-0.19711-0.404-1.4422 84.585-49.176 47.958-26.936 87.234-48.931 87.278-48.878 0.0447 0.05274-0.27226 18.798-0.70433 41.657-0.43206 22.859-0.79788 46.5-0.81295 52.537l-0.0274 10.976-6-0.0719c-3.3-0.0395-41.034-1.5949-83.854-3.4563z"/><path transform="scale(.26458)" d="m92.73 233.69c-23.047-51.422-41.88-93.54-41.851-93.595 0.09627-0.18035 170.89 7.712 176.33 8.148l1.8393 0.14752-46.876 89.415c-25.782 49.178-47.024 89.407-47.205 89.398-0.18096-9e-3 -19.186-42.09-42.233-93.512z"/><path transform="scale(.26458)" d="m47.437 276.31c0.16397-36.55 0.45535-78.669 0.64752-93.599l0.34939-27.145 1.927 4.3159c41.48 92.9 77.459 174.06 77.254 174.26-0.20506 0.20506-65.581 7.2372-77.997 8.3898l-2.4795 0.23017z"/><path transform="scale(.26458)" d="m136.98 394.79c-43.139-23.948-78.511-43.771-78.605-44.051-0.09326-0.27977 1.8806-0.67126 4.3864-0.86996 2.5058-0.19871 18.78-1.6869 36.166-3.3072 17.385-1.6202 32.29-2.9462 33.121-2.9465 1.2713-4.9e-4 7.784 7.1764 40.976 45.155 47.324 54.149 43.468 49.686 42.876 49.618-0.26655-0.0306-35.78-19.65-78.92-43.598z"/><path transform="scale(.26458)" d="m191.3 395.83-46.363-53.098 46.555-0.14986c25.605-0.0824 67.32-0.0824 92.699 0l46.143 0.14986-45.635 52.39c-25.099 28.815-45.95 52.709-46.336 53.098-0.54566 0.55115-10.951-11.032-47.064-52.39z"/><path transform="scale(.26458)" d="m259.09 438.64c0.12474-0.31733 18.757-21.828 41.406-47.802 37.289-42.764 41.344-47.225 42.92-47.225 2.4348 0 68.746 6.9028 71.596 7.453 2.3066 0.44524 1.576 0.86654-74.341 42.868-42.169 23.33-77.827 43.063-79.239 43.851-1.4125 0.78805-2.4662 1.1732-2.3415 0.85587z"/><path transform="scale(.26458)" d="m384.88 339.38c-21.088-2.2478-38.419-4.1582-38.513-4.2455-0.0944-0.0873 17.942-40.479 40.081-89.76 22.139-49.281 40.289-89.55 40.335-89.487 0.0453 0.063 0.25764 42.327 0.47177 93.919l0.38931 93.805-2.211-0.0725c-1.216-0.0399-19.465-1.9116-40.552-4.1593z"/></g></svg>
