<?xml version="1.0" encoding="UTF-8"?>
<svg width="5in" height="5in" version="1.1" viewBox="0 0 127 127" xmlns="http://www.w3.org/2000/svg"><g transform="translate(0 -170)"><path d="m82.213 173.73-62.067 21.141-0.28549 0.85646-0.41913 0.13718 0.04573 58.022 0.18955 0.5984 26.659 37.944 0.4776-0.15964 0.76878 0.5158 61.539-25.223 0.64613-0.96387v-55.472l-0.31292-0.20535 0.11647-0.39305-26.177-36.412zm-0.05697 2.22 24.941 34.693-31.936 12.395-27.578 10.703-19.076-27.968-6.3924-9.3726zm-60.629 23.283 1.1045 1.6194 23.517 34.479v53.199l-24.578-34.983zm86.16 13.414v53.254l-59.457 24.371v-54.55z" color="#000000" color-rendering="auto" dominant-baseline="auto" fill-opacity=".99471" image-rendering="auto" shape-rendering="auto" solid-color="#000000" style="font-feature-settings:normal;font-variant-alternates:normal;font-variant-caps:normal;font-variant-ligatures:normal;font-variant-numeric:normal;font-variant-position:normal;isolation:auto;mix-blend-mode:normal;paint-order:stroke markers fill;shape-padding:0;text-decoration-color:#000000;text-decoration-line:none;text-decoration-style:solid;text-indent:0;text-orientation:mixed;text-transform:none;white-space:normal"/></g><g fill="#ffafff" stroke-width="1.0398"><path transform="scale(.26458)" d="m132.08 170.23c-26.337-38.615-47.793-70.278-47.678-70.362 0.31392-0.23131 224.28-76.38 225.23-76.578 0.51158-0.1068 18.537 24.447 47.561 64.788 25.705 35.728 46.732 65.099 46.725 65.268-9e-3 0.22707-198.24 77.347-220.66 85.847l-3.2872 1.2461z"/><path transform="scale(.26458)" d="m182.8 351.08 0.14798-102.58 110.34-42.852c60.688-23.568 111.07-43.117 111.95-43.441l1.6098-0.58901v200.53l-111.66 45.756c-61.412 25.166-111.86 45.754-112.1 45.751-0.24236-2e-3 -0.37407-46.165-0.29268-102.58z"/><path transform="scale(.26458)" d="m127.89 381.22-45.623-64.829-0.35514-102.15c-0.19533-56.18-0.29884-102.22-0.23004-102.31 0.0688-0.0881 20.839 30.205 46.157 67.317l46.031 67.477 4e-3 99.659c2e-3 54.812-0.0782 99.659-0.17798 99.659-0.0998 0-20.712-29.173-45.805-64.829z"/></g></svg>
