<?xml version="1.0" encoding="UTF-8"?>
<svg width="5in" height="5in" version="1.1" viewBox="0 0 127 127" xmlns="http://www.w3.org/2000/svg"><g transform="translate(0 -170)"><path d="m82.213 173.73-62.067 21.141-0.28549 0.85646-0.41913 0.13718 0.04573 58.022 0.18955 0.5984 26.659 37.944 0.4776-0.15964 0.76878 0.5158 61.539-25.223 0.64613-0.96387v-55.472l-0.31292-0.20535 0.11647-0.39305-26.177-36.412zm-0.05697 2.22 24.941 34.693-31.936 12.395-27.578 10.703-19.076-27.968-6.3924-9.3726zm-60.629 23.283 1.1045 1.6194 23.517 34.479v53.199l-24.578-34.983zm86.16 13.414v53.254l-59.457 24.371v-54.55z" color="#000000" color-rendering="auto" dominant-baseline="auto" fill-opacity=".99471" image-rendering="auto" shape-rendering="auto" solid-color="#000000" style="font-feature-settings:normal;font-variant-alternates:normal;font-variant-caps:normal;font-variant-ligatures:normal;font-variant-numeric:normal;font-variant-position:normal;isolation:auto;mix-blend-mode:normal;paint-order:stroke markers fill;shape-padding:0;text-decoration-color:#000000;text-decoration-line:none;text-decoration-style:solid;text-indent:0;text-orientation:mixed;text-transform:none;white-space:normal"/></g><g fill="#ffafff" stroke-width="1.0398"><path transform="scale(.26458)" d="m169.59 225.23c-67.755-99.301-85.004-124.67-85.004-125.02 0-0.33113 222.61-76.38 225.19-76.932 0.81879-0.17482 94.431 129.61 93.897 130.18-0.19647 0.21039-50.406 19.797-111.58 43.525s-111.4 43.251-111.62 43.383c-0.21936 0.13232-5.1198-6.6784-10.89-15.135z"/><path transform="scale(.26458)" d="m175.84 233.72c-3.972-5.6214-59.634-87.184-82.127-120.34-4.7634-7.0222-8.5441-12.884-8.4014-13.027 0.31453-0.31453-0.96093 0.12902 47.864-16.645 54.364-18.677 133.24-45.592 156.94-53.552l19.671-6.6075 4.014 5.3482c10.919 14.549 61.667 84.807 81.584 112.95 4.7879 6.7654 7.5872 11.226 7.254 11.559-0.46935 0.46934-219.11 85.756-221.46 86.389-0.57761 0.15518-2.4032-1.9225-5.3352-6.0722z"/><path transform="scale(.26458)" d="m182.49 351.39 0.14797-102.77 110.63-42.928c60.849-23.611 111.23-43.195 111.95-43.52l1.3187-0.59213-0.29602 200.81-100.68 41.274c-55.376 22.701-105.75 43.348-111.95 45.882l-11.27 4.6072z"/><path transform="scale(.26458)" d="m127.76 380.97-46.098-65.64v-203.8l1.5824 2.331c0.87031 1.282 21.68 31.802 46.244 67.821l44.662 65.49v99.729c0 54.851-0.0659 99.724-0.14634 99.717-0.0805-7e-3 -20.89-29.55-46.244-65.652z"/><path transform="scale(.26458)" d="m177.03 235.47c-3.5136-4.8854-77.539-113.36-86.526-126.79-2.981-4.4556-5.2926-8.2285-5.1368-8.3843 0.54975-0.54974 156.03-53.824 203.07-69.58l21.502-7.2025 10.158 13.853c21.356 29.126 64.422 88.894 77.606 107.71 3.0831 4.3988 5.247 8.0227 4.9599 8.3066-0.28005 0.27695-13.285 5.4925-28.899 11.59-59.989 23.426-191.75 74.619-192.59 74.827-0.55304 0.13691-2.0873-1.464-4.145-4.3251z"/></g><text fill="black" font-family="sans-serif" font-size="28.222px" style="line-height:1.25;shape-inside:url(#rect2020);white-space:pre" xml:space="preserve"/><text transform="rotate(-9)" x="45.018059" y="113.137" fill="#000000" font-family="sans-serif" font-size="56.089px" stroke-width=".52584" style="line-height:1.25" xml:space="preserve"><tspan x="45.018059" y="113.137" font-size="56.089px" stroke-width=".52584">6</tspan></text></svg>
