<?xml version="1.0" encoding="UTF-8"?>
<svg width="2in" height="2in" version="1.1" viewBox="0 0 50.8 50.8" xmlns="http://www.w3.org/2000/svg"><g transform="translate(0 -246.2)"><path d="m25.488 249.62c-0.20136 0.0109-0.31572 0.17448-0.28842 0.14491l-23.426 29.35c-0.18049 0.20862-0.09757 0.5437 0.15912 0.64455l30.933 12.911a0.15755 0.15755 0 0 0 0.0033 1e-3l0.20035 0.0788c0.1694 0.0665 0.36411 0.011 0.47333-0.13385l0.15579-0.20614 15.369-20.389c0.12434-0.16503 0.10437-0.40031-0.04631-0.54175a0.15755 0.15755 0 0 0-1e-3 0l-22.997-21.521-0.2293-0.2228a0.15755 0.15755 0 0 0-8.83e-4 -1e-3c-0.05898-0.057-0.1334-0.0947-0.21491-0.10858-0.03215-6e-3 -0.06263-7e-3 -0.0914-6e-3zm0.6021 1.9226 21.707 20.316-14.33 19.012c-2.4588-13.109-4.9177-26.218-7.3766-39.327zm-1.1253 0.21228c2.4712 13.174 4.9428 26.348 7.4138 39.523l-29.121-12.19z" color="#000000" color-rendering="auto" dominant-baseline="auto" image-rendering="auto" shape-rendering="auto" solid-color="#000000" style="font-feature-settings:normal;font-variant-alternates:normal;font-variant-caps:normal;font-variant-ligatures:normal;font-variant-numeric:normal;font-variant-position:normal;isolation:auto;mix-blend-mode:normal;shape-padding:0;text-decoration-color:#000000;text-decoration-line:none;text-decoration-style:solid;text-indent:0;text-orientation:mixed;text-transform:none;white-space:normal"/></g><path transform="scale(.26458)" d="m67.385 147.22c-29.954-12.552-54.55-22.854-54.658-22.892-0.22317-0.07902 81.267-102.77 81.493-102.7 0.10021 0.0331 27.881 147.44 27.967 148.39 0.014 0.1552-3.946-1.4926-54.802-22.804z" fill="#f0f" stroke-width=".40993"/><g><path transform="scale(.26458)" d="m126.48 167.98c-0.2127-0.63372-27.608-147.05-27.529-147.13 0.08971-0.08971 81.237 75.805 81.346 76.08 0.0598 0.15126-52.548 70.154-53.395 71.05-0.26973 0.2854-0.32613 0.2854-0.42191 0z" fill="#ffafff" stroke-width=".40993"/><path transform="scale(.26458)" d="m118.73 168.54c-1.7127-0.70028-24.454-10.208-50.537-21.128-26.083-10.92-49.166-20.583-51.297-21.473-2.1305-0.88997-3.8439-1.7031-3.8077-1.807 0.09727-0.27877 6.2632-8.1208 23.888-30.382 36.596-46.222 57.136-71.96 57.211-71.688 0.24956 0.90791 26.146 138.32 27.542 146.14 0.14389 0.80645 0.22854 1.4994 0.1881 1.5398-0.0404 0.0404-1.4748-0.49944-3.1876-1.1997z" fill="#ffafff" stroke-width=".40993"/><g font-family="sans-serif"><text fill="black" font-size="10.583px" style="line-height:1.25;shape-inside:url(#rect2111);white-space:pre" xml:space="preserve"/><text fill="black" font-size="10.583px" style="line-height:1.25;shape-inside:url(#rect2117);white-space:pre" xml:space="preserve"/><text transform="rotate(23.8)" x="22.745451" y="23.845091" fill="#000000" font-size="17.05px" stroke-width=".42624" style="line-height:1.25" xml:space="preserve"><tspan x="22.745451" y="23.845091" stroke-width=".42624">4</tspan></text></g></g></svg>
